<svg width="39" height="39" viewBox="0 0 39 39" fill="none" xmlns="http://www.w3.org/2000/svg"><path d="M25.455 19.046c0-.515-.076-1.076-.227-1.682h1.909v9.182c0 .242-.084.44-.25.59a.879.879 0 0 1-.614.228H11.318a.8.8 0 0 1-.59-.227.799.799 0 0 1-.228-.591v-9.182h1.864a6.969 6.969 0 0 0-.227 1.682c0 .909.174 1.773.522 2.59a6.44 6.44 0 0 0 1.432 2.114 6.9 6.9 0 0 0 2.136 1.41 6.544 6.544 0 0 0 2.591.522c.91 0 1.773-.174 2.591-.522a6.623 6.623 0 0 0 2.114-1.41 6.623 6.623 0 0 0 1.41-2.113 6.543 6.543 0 0 0 .522-2.591Zm-6.636 4.136a4.256 4.256 0 0 1-1.637-.318 4.059 4.059 0 0 1-2.227-2.205 4.089 4.089 0 0 1-.318-1.613c0-.576.106-1.122.318-1.637a4.06 4.06 0 0 1 .886-1.34 4.06 4.06 0 0 1 1.341-.887 4.254 4.254 0 0 1 1.637-.318 4.088 4.088 0 0 1 3.818 2.545c.212.515.318 1.061.318 1.637a4.087 4.087 0 0 1-1.205 2.932 4.09 4.09 0 0 1-2.932 1.205Zm7.454-12.454c.243 0 .447.075.614.227.166.151.25.348.25.59v2.5c0 .243-.084.44-.25.592a.879.879 0 0 1-.614.227h-2.5a.8.8 0 0 1-.59-.227.8.8 0 0 1-.228-.591v-2.5a.8.8 0 0 1 .227-.591.8.8 0 0 1 .591-.228h2.5ZM28.5 0c1.303 0 2.538.25 3.705.75a9.616 9.616 0 0 1 3.046 2.046 9.688 9.688 0 0 1 2.045 3.022c.5 1.152.75 2.38.75 3.682v19c0 1.303-.25 2.538-.75 3.705a9.617 9.617 0 0 1-2.045 3.046 9.617 9.617 0 0 1-3.046 2.045c-1.167.5-2.401.75-3.704.75h-19c-1.304 0-2.531-.25-3.683-.75a9.688 9.688 0 0 1-3.022-2.045A9.616 9.616 0 0 1 .75 32.205 9.306 9.306 0 0 1 0 28.501v-19C0 8.196.25 6.97.75 5.817a9.687 9.687 0 0 1 2.046-3.022A9.687 9.687 0 0 1 5.817.75 9.144 9.144 0 0 1 9.5 0h19Zm1.137 10.727c0-.697-.243-1.287-.727-1.772a2.412 2.412 0 0 0-1.773-.728H10.5c-.697 0-1.288.243-1.773.728A2.412 2.412 0 0 0 8 10.727v16.637c0 .697.243 1.288.727 1.773a2.412 2.412 0 0 0 1.773.727h16.637c.697 0 1.288-.242 1.773-.727a2.412 2.412 0 0 0 .727-1.773V10.727Z" fill="#125E5E"/></svg>