<svg width="38" height="38" viewBox="0 0 38 38" fill="none" xmlns="http://www.w3.org/2000/svg"><g clip-path="url(#a)"><mask id="b" style="mask-type:luminance" maskUnits="userSpaceOnUse" x="0" y="0" width="38" height="38"><path d="M30.322 0H7.678C3.438 0 0 3.431 0 7.664v22.602c0 4.232 3.438 7.664 7.678 7.664h22.644c4.24 0 7.678-3.432 7.678-7.664V7.664C38 3.431 34.562 0 30.322 0Z" fill="#fff"/></mask><g mask="url(#b)"><path d="M0 33.62V4.379c.137-.084.1-.238.133-.359C.642 2.054 1.873.79 3.803.183c.215-.067.457-.04.649-.183H33.47c.013.06.057.064.109.071 2.48.326 4.408 2.499 4.412 5.034.01 9.263.01 18.526 0 27.79 0 2.27-1.541 4.257-3.727 4.891-.263.077-.53.143-.793.214H4.379c-.033-.118-.141-.077-.216-.099-2.181-.534-3.537-1.89-4.066-4.068-.02-.07.021-.179-.097-.212Zm20.24-16.81v-.961c-.008-.618-.267-.879-.884-.88a444.15 444.15 0 0 0-3.265 0c-.62 0-.876.26-.876.882v14.136c0 .615.268.89.877.89h3.075c.836 0 1.052-.214 1.052-1.049v-7.16c0-.906.205-1.767.713-2.53.619-.93 1.524-1.208 2.585-1.057.957.134 1.542.72 1.85 1.607.27.784.287 1.599.286 2.417a2013.5 2013.5 0 0 0 0 6.864c0 .645.258.902.892.903h3.338c.635 0 .908-.27.907-.9 0-2.623.005-5.247-.013-7.866.01-1.076-.11-2.15-.359-3.197-.407-1.614-1.19-2.963-2.777-3.668-1.404-.623-2.876-.635-4.363-.355-1.25.235-2.25.888-3.038 1.925ZM7.942 22.897v7.049c0 .63.302.928.936.93h3.116c.656 0 .963-.291.964-.943.004-4.675.004-9.35 0-14.024 0-.658-.297-.944-.959-.947a267.016 267.016 0 0 0-3.074 0c-.706 0-.979.284-.979.996-.006 2.314-.008 4.627-.007 6.939h.003Zm2.484-9.305a3.246 3.246 0 0 0 3.01-1.982 3.23 3.23 0 0 0-.689-3.534 3.243 3.243 0 0 0-5.54 2.282 3.21 3.21 0 0 0 1.98 2.99c.392.163.812.247 1.236.248l.003-.004Z" fill="#125E5E"/></g></g><defs><clipPath id="a"><path fill="#fff" d="M0 0h38v38H0z"/></clipPath></defs></svg>