<svg width="33" height="47" viewBox="0 0 33 47" fill="none" xmlns="http://www.w3.org/2000/svg"><path d="M16.5 46c1.022 0 2.042-.101 3.045-.303l.042-.008a15.503 15.503 0 0 0 8.905-5.424 15.704 15.704 0 0 0 3.501-9.871V17.067a15.713 15.713 0 0 0-1.047-6.113 15.625 15.625 0 0 0-3.328-5.22 15.495 15.495 0 0 0-5.082-3.502 15.403 15.403 0 0 0-12.072 0 15.497 15.497 0 0 0-5.083 3.503 15.626 15.626 0 0 0-3.327 5.22 15.715 15.715 0 0 0-1.047 6.112v13.327a15.682 15.682 0 0 0 4.543 11.03A15.455 15.455 0 0 0 16.5 46ZM1.89 31.774c.027.005.054.009.082.01a18.278 18.278 0 0 1 10.87 4.024 21.17 21.17 0 0 1 3.705 3.825c1.163 1.55 2.288 3.299 2.723 5.21l.01.032-.039.036a14.57 14.57 0 0 1-6.063-.122 14.625 14.625 0 0 1-5.496-2.582 14.748 14.748 0 0 1-3.99-4.6 14.857 14.857 0 0 1-1.803-5.833Zm18.958 12.733c1.429-1.664 2.364-3.764 2.408-5.988.053-3.103-1.628-6.114-3.393-8.538-2.01-2.76-4.436-5.175-6.534-7.862-2.233-2.866-4.445-5.803-4.294-9.634.147-3.72 2.083-7.053 4.82-9.456 1.444 8.81 8.101 16.9 17.31 17.64v9.725a14.876 14.876 0 0 1-2.86 8.759 14.7 14.7 0 0 1-7.452 5.355h-.005Zm10.318-27.44V19.8c-8.973-.729-15.28-8.838-16.535-17.39a14.75 14.75 0 0 1 1.868-.12c3.89.005 7.619 1.563 10.37 4.333a14.85 14.85 0 0 1 4.302 10.445h-.005Zm-29.341 0A14.872 14.872 0 0 1 4.92 7.998a14.688 14.688 0 0 1 7.965-5.253C8.683 6.69 6.657 12.954 9.602 18.287c1.591 2.882 3.862 5.438 6.015 7.898 2.365 2.697 4.877 5.487 6.116 8.922 1.19 3.297.526 6.562-1.742 9.06-.51-1.815-1.576-3.48-2.694-4.972a22.071 22.071 0 0 0-4.065-4.178 19.16 19.16 0 0 0-11.256-4.102.44.44 0 0 0-.131.02c0-.18-.01-.359-.01-.54l-.01-13.328Z" fill="#00605F" stroke="#125E5E" stroke-width=".5"/></svg>