<svg width="202" height="179" viewBox="0 0 202 179" fill="none" xmlns="http://www.w3.org/2000/svg"><path d="M9.59 105.612c0-10.719 7.476-18.866 18.029-18.866 5.428 0 10.008 1.823 13.143 3.508v-4.566c-2.106-1.263-6.876-3.393-13.143-3.393-13.025 0-22.673 10.154-22.673 23.317 0 13.224 9.648 23.316 22.673 23.316 6.51 0 11.335-2.068 13.446-3.315v-4.574c-3.137 1.629-7.78 3.447-13.446 3.447-10.553-.015-18.029-8.157-18.029-18.874ZM73.358 105.549 60.333 83.046H55.21l15.857 27.077v18.052h4.581v-18.052l15.859-27.077h-5.126l-13.023 22.503ZM116.872 82.295l-19.716 45.881h4.884l4.522-10.906h20.682l4.642 10.906h4.823l-19.717-45.88h-.12Zm-8.554 31.025c3.136-7.458 5.85-13.976 8.623-21.059 2.774 7.083 5.486 13.601 8.621 21.059h-17.244ZM182.436 83.046v29.961c0 1.505.061 2.758.061 4.011l-1.266-1.566-27.677-33.157h-.059v45.881h4.585V98.215c0-1.442-.06-2.758-.06-4.011.362.497.844 1.066 1.267 1.566l27.675 33.158h.06V83.046h-4.586Z" fill="#00605F"/><path d="M103.67 63.224c1.28 0 2.557-.127 3.813-.38l.052-.01a19.414 19.414 0 0 0 11.152-6.795 19.678 19.678 0 0 0 4.385-12.364V26.98a19.684 19.684 0 0 0-1.312-7.657 19.576 19.576 0 0 0-4.167-6.539 19.4 19.4 0 0 0-6.365-4.387 19.286 19.286 0 0 0-15.117 0 19.407 19.407 0 0 0-6.365 4.388 19.576 19.576 0 0 0-4.167 6.538 19.69 19.69 0 0 0-1.311 7.657v16.694a19.648 19.648 0 0 0 5.689 13.816 19.351 19.351 0 0 0 13.713 5.733Zm-18.297-17.82a.683.683 0 0 0 .103.012 22.886 22.886 0 0 1 13.612 5.04 26.515 26.515 0 0 1 4.641 4.792c1.456 1.941 2.865 4.132 3.41 6.527a.276.276 0 0 0 .013.04l-.049.045c-2.514.482-5.101.43-7.593-.154a18.312 18.312 0 0 1-6.883-3.234 18.473 18.473 0 0 1-4.997-5.762 18.615 18.615 0 0 1-2.257-7.307Zm23.741 15.95c1.79-2.085 2.961-4.715 3.016-7.501.067-3.887-2.038-7.66-4.249-10.696-2.517-3.457-5.555-6.482-8.182-9.848-2.797-3.59-5.567-7.27-5.378-12.067.185-4.661 2.61-8.836 6.036-11.846 1.809 11.035 10.146 21.17 21.679 22.097v12.182a18.642 18.642 0 0 1-3.583 10.972 18.405 18.405 0 0 1-9.332 6.707h-.007Zm12.922-34.373v3.423c-11.237-.913-19.134-11.072-20.707-21.785.776-.1 1.557-.15 2.339-.15a18.323 18.323 0 0 1 12.986 5.428 18.604 18.604 0 0 1 5.388 13.084h-.006Zm-36.744 0a18.633 18.633 0 0 1 3.878-11.36 18.394 18.394 0 0 1 9.974-6.581c-5.263 4.942-7.8 12.788-4.112 19.47 1.992 3.61 4.836 6.811 7.532 9.892 2.961 3.378 6.108 6.874 7.659 11.176 1.491 4.13.658 8.221-2.181 11.35-.64-2.274-1.974-4.36-3.374-6.228a27.66 27.66 0 0 0-5.09-5.234 23.989 23.989 0 0 0-14.097-5.138.546.546 0 0 0-.164.024c0-.225-.013-.449-.013-.676l-.012-16.695Z" fill="#00605F" stroke="#125E5E" stroke-width=".5"/><path d="m55.728 160.199-3.035-11.085h.891l2.632 9.954 2.789-9.613h.973l2.655 9.555 2.622-9.888h.872l-3.084 11.085h-.875l-2.695-9.582-2.82 9.574h-.925ZM71.241 160.199v-11.085h6.598v.747h-5.805v4.189h4.535v.752h-4.535v4.641h6.234v.749l-7.027.007ZM83.536 160.199v-11.085h.79v10.329h6.235v.749l-7.025.007ZM95.69 160.199v-11.085h.793v10.329h6.234v.749l-7.027.007ZM107.846 160.199v-11.085h.823l7.06 9.888v-9.888h.775v11.085h-.823l-7.058-9.756v9.756h-.777ZM122.713 160.199v-11.085h6.598v.747h-5.806v4.189h4.536v.752h-4.533v4.641h6.234v.749l-7.029.007ZM134.491 158.737l.578-.565c.38.448.839.822 1.353 1.103.585.309 1.238.46 1.897.441.846 0 1.544-.196 2.094-.59.551-.393.825-.978.823-1.753a2.05 2.05 0 0 0-.403-1.326 2.736 2.736 0 0 0-1.048-.781 9.032 9.032 0 0 0-1.336-.466 29.925 29.925 0 0 1-1.245-.391 4.965 4.965 0 0 1-1.122-.53 2.452 2.452 0 0 1-.808-.864 2.713 2.713 0 0 1-.306-1.355 2.599 2.599 0 0 1 .403-1.406 2.86 2.86 0 0 1 1.173-1.021 4.078 4.078 0 0 1 1.838-.383 4.428 4.428 0 0 1 1.584.249c.384.141.743.344 1.064.6.249.196.47.425.658.681l-.561.482a3.34 3.34 0 0 0-.545-.557 3.212 3.212 0 0 0-.881-.507 3.625 3.625 0 0 0-1.344-.217 3.11 3.11 0 0 0-1.481.308 2.012 2.012 0 0 0-.839.786 2.067 2.067 0 0 0-.264 1.014 1.62 1.62 0 0 0 .462 1.238c.339.313.742.548 1.179.69.479.166.964.317 1.459.447.392.103.777.231 1.152.385.371.151.721.352 1.039.597.318.248.574.567.751.931.2.437.296.915.281 1.396a2.731 2.731 0 0 1-.504 1.657 3.262 3.262 0 0 1-1.362 1.064 4.747 4.747 0 0 1-1.911.373 4.832 4.832 0 0 1-2.369-.54 4.457 4.457 0 0 1-1.459-1.19ZM147.044 158.737l.577-.566c.38.449.838.823 1.352 1.104.585.308 1.238.46 1.897.441.848 0 1.546-.197 2.096-.59.549-.393.823-.978.822-1.754a2.037 2.037 0 0 0-.404-1.325 2.725 2.725 0 0 0-1.047-.781 8.8 8.8 0 0 0-1.33-.464 30.948 30.948 0 0 1-1.244-.391 4.946 4.946 0 0 1-1.122-.531 2.46 2.46 0 0 1-.809-.863 2.73 2.73 0 0 1-.306-1.356 2.578 2.578 0 0 1 .405-1.405 2.842 2.842 0 0 1 1.171-1.021 4.083 4.083 0 0 1 1.839-.383 4.405 4.405 0 0 1 1.584.248c.384.142.743.345 1.064.6.248.197.47.426.658.682l-.561.482a3.373 3.373 0 0 0-.544-.557 3.214 3.214 0 0 0-.884-.507 3.588 3.588 0 0 0-1.342-.217 3.105 3.105 0 0 0-1.48.308 2.01 2.01 0 0 0-.833.789 2.056 2.056 0 0 0-.264 1.014 1.62 1.62 0 0 0 .462 1.238c.339.313.741.548 1.179.69.479.165.964.316 1.459.447.392.103.777.231 1.152.385.371.151.721.352 1.039.596.317.25.574.568.75.932.201.437.297.915.282 1.395a2.727 2.727 0 0 1-.505 1.658c-.35.471-.82.839-1.361 1.064a4.74 4.74 0 0 1-1.913.373 4.836 4.836 0 0 1-2.367-.541 4.445 4.445 0 0 1-1.472-1.194Z" fill="#00605F"/></svg>