<svg width="105" height="93" viewBox="0 0 105 93" fill="none" xmlns="http://www.w3.org/2000/svg"><path d="M4.985 54.87c0-5.568 3.886-9.801 9.371-9.801 2.822 0 5.202.947 6.832 1.823v-2.373c-1.094-.656-3.574-1.762-6.832-1.762-6.77 0-11.785 5.275-11.785 12.114 0 6.87 5.015 12.114 11.785 12.114 3.385 0 5.893-1.075 6.99-1.722v-2.377c-1.631.846-4.044 1.791-6.99 1.791-5.485-.008-9.37-4.238-9.37-9.806ZM38.132 54.838l-6.77-11.691h-2.664l8.243 14.068v9.379h2.381v-9.38l8.244-14.067H44.9l-6.769 11.691ZM60.75 42.757 50.503 66.594h2.539l2.35-5.666h10.75l2.414 5.666h2.507L60.813 42.757h-.062Zm-4.446 16.119c1.63-3.875 3.04-7.262 4.482-10.941 1.442 3.68 2.852 7.066 4.482 10.94h-8.964ZM94.83 43.147v15.566c0 .782.032 1.433.032 2.084l-.658-.814-14.386-17.226h-.03v23.837h2.382V51.028c0-.75-.03-1.433-.03-2.084.188.258.438.553.658.814l14.385 17.227h.032V43.147H94.83Z" fill="#00605F"/><path d="M53.888 32.848c.665 0 1.33-.066 1.982-.197l.027-.005a10.091 10.091 0 0 0 5.797-3.53 10.22 10.22 0 0 0 2.28-6.425v-8.673a10.224 10.224 0 0 0-.682-3.978 10.168 10.168 0 0 0-2.167-3.397 10.088 10.088 0 0 0-3.308-2.28 10.029 10.029 0 0 0-7.858 0 10.087 10.087 0 0 0-3.309 2.28c-.94.975-1.677 2.13-2.166 3.397a10.224 10.224 0 0 0-.681 3.978v8.673a10.206 10.206 0 0 0 2.957 7.179 10.062 10.062 0 0 0 7.128 2.978Zm-9.51-9.259a.35.35 0 0 0 .053.007 11.9 11.9 0 0 1 7.076 2.619c.904.724 1.715 1.56 2.412 2.49.756 1.008 1.49 2.146 1.772 3.39a.148.148 0 0 0 .007.021l-.026.023a9.487 9.487 0 0 1-7.524-1.76 9.598 9.598 0 0 1-2.598-2.994 9.666 9.666 0 0 1-1.173-3.796Zm12.34 8.288c.93-1.084 1.54-2.45 1.567-3.898.036-2.02-1.059-3.979-2.208-5.556-1.308-1.797-2.888-3.368-4.253-5.117-1.454-1.865-2.894-3.777-2.795-6.27.095-2.421 1.356-4.59 3.137-6.154.94 5.733 5.274 10.999 11.269 11.48v6.33a9.68 9.68 0 0 1-1.863 5.7 9.57 9.57 0 0 1-4.85 3.485h-.004Zm6.716-17.859v1.778c-5.84-.474-9.945-5.752-10.763-11.318a9.527 9.527 0 0 1 7.966 2.742 9.664 9.664 0 0 1 2.801 6.798h-.004Zm-19.099 0a9.678 9.678 0 0 1 2.016-5.902 9.561 9.561 0 0 1 5.185-3.42c-2.736 2.568-4.055 6.645-2.138 10.116 1.035 1.876 2.514 3.54 3.915 5.14 1.54 1.755 3.175 3.571 3.981 5.806.775 2.146.342 4.271-1.133 5.897-.333-1.181-1.026-2.265-1.754-3.236a14.364 14.364 0 0 0-2.646-2.72 12.474 12.474 0 0 0-7.327-2.669.285.285 0 0 0-.086.013c0-.117-.007-.233-.007-.351l-.006-8.674Z" fill="#00605F" stroke="#125E5E" stroke-width=".5"/><path d="m28.967 83.232-1.577-5.76h.463l1.368 5.172 1.45-4.994h.506l1.38 4.964 1.363-5.137h.453l-1.603 5.759h-.455l-1.4-4.978-1.467 4.974h-.48ZM37.031 83.232v-5.76h3.43v.389h-3.018v2.176h2.358v.39h-2.358v2.412h3.241v.39l-3.653.003ZM43.422 83.232v-5.76h.411v5.367h3.24v.39l-3.651.003ZM49.74 83.232v-5.76h.412v5.367h3.24v.39l-3.652.003ZM56.059 83.232v-5.76h.427l3.67 5.138v-5.138h.403v5.76h-.428l-3.669-5.069v5.069h-.403ZM63.787 83.232v-5.76h3.43v.389h-3.02v2.176h2.36v.39H64.2v2.412h3.24v.39l-3.653.003ZM69.909 82.472l.3-.294c.197.234.436.428.703.574.304.16.644.239.986.229.44 0 .803-.102 1.089-.307.286-.204.428-.508.427-.91a1.062 1.062 0 0 0-.21-.69 1.42 1.42 0 0 0-.544-.405 4.67 4.67 0 0 0-.694-.242c-.218-.063-.433-.131-.647-.203-.205-.067-.401-.16-.584-.276a1.269 1.269 0 0 1-.42-.448 1.408 1.408 0 0 1-.158-.705 1.349 1.349 0 0 1 .21-.73c.15-.23.36-.414.609-.53.299-.14.626-.209.955-.2.28-.007.559.037.823.13a1.978 1.978 0 0 1 .895.665l-.291.25a1.742 1.742 0 0 0-.283-.288 1.667 1.667 0 0 0-.458-.264 1.879 1.879 0 0 0-.699-.113c-.266-.01-.53.044-.77.16-.181.09-.333.233-.436.409-.09.16-.137.342-.137.527a.848.848 0 0 0 .24.643c.177.162.386.284.613.358.249.086.501.165.758.233.204.053.404.12.6.2.192.078.374.182.54.31.164.129.298.294.39.483.103.227.154.475.146.725.008.308-.084.61-.262.861a1.696 1.696 0 0 1-.708.553 2.466 2.466 0 0 1-.994.194 2.515 2.515 0 0 1-1.23-.28 2.313 2.313 0 0 1-.76-.619ZM76.434 82.472l.3-.294c.197.233.435.428.703.574.303.16.643.239.985.229.441 0 .804-.102 1.09-.307.285-.204.428-.508.427-.91a1.062 1.062 0 0 0-.21-.69 1.42 1.42 0 0 0-.544-.405 4.64 4.64 0 0 0-.692-.241c-.217-.063-.432-.131-.646-.203a2.574 2.574 0 0 1-.583-.276 1.28 1.28 0 0 1-.42-.449 1.418 1.418 0 0 1-.16-.704 1.342 1.342 0 0 1 .21-.73c.15-.23.361-.414.61-.53.298-.14.626-.208.955-.2.28-.007.56.037.824.13a2 2 0 0 1 .553.311c.129.102.244.222.342.354l-.292.25a1.677 1.677 0 0 0-.742-.553 1.877 1.877 0 0 0-.698-.112c-.265-.01-.53.044-.77.16a1.04 1.04 0 0 0-.57.937.85.85 0 0 0 .24.643c.177.163.386.285.614.359.249.086.5.164.758.232.204.053.404.12.599.2.193.079.375.183.54.31.165.13.298.295.39.484.104.227.154.475.146.725.009.308-.083.61-.262.861a1.689 1.689 0 0 1-.707.553 2.464 2.464 0 0 1-.995.194 2.51 2.51 0 0 1-1.23-.281 2.312 2.312 0 0 1-.765-.62Z" fill="#00605F"/></svg>