<svg width="39" height="39" viewBox="0 0 39 39" fill="none" xmlns="http://www.w3.org/2000/svg"><path d="M29.5 0c1.303 0 2.53.25 3.682.75a9.688 9.688 0 0 1 3.023 2.046 9.688 9.688 0 0 1 2.045 3.022c.5 1.152.75 2.38.75 3.682v19c0 1.303-.25 2.538-.75 3.705a9.617 9.617 0 0 1-2.045 3.046 9.689 9.689 0 0 1-3.023 2.045c-1.152.5-2.379.75-3.682.75H10.454c-1.303 0-2.53-.25-3.682-.75a9.688 9.688 0 0 1-3.022-2.045 9.616 9.616 0 0 1-2.046-3.046 9.306 9.306 0 0 1-.75-3.704v-19c0-1.304.25-2.531.75-3.683A9.687 9.687 0 0 1 3.75 2.796 9.687 9.687 0 0 1 6.772.75 9.144 9.144 0 0 1 10.454 0H29.5ZM9.272 24 15 19.91l-5.728-4.092V24Zm21.41 1.773-6.955-5L20 23.455l-3.773-2.682-6.955 5V28.5h21.41v-2.727Zm0-9.955-5.727 4.091L30.681 24v-8.182Zm0-6.318H9.272v2.773L20 19.909l10.682-7.636V9.5Z" fill="#125E5E"/></svg>