<svg width="30" height="29" viewBox="0 0 30 29" fill="none" xmlns="http://www.w3.org/2000/svg"><path d="M13.781 1.133c.347-.806 1.49-.806 1.837 0L18.98 8.94a1 1 0 0 0 .826.6l8.464.785c.873.08 1.227 1.168.567 1.747l-6.385 5.61a1 1 0 0 0-.316.97l1.869 8.293c.193.856-.732 1.527-1.486 1.08l-7.309-4.34a1 1 0 0 0-1.02 0l-7.31 4.34c-.754.447-1.679-.224-1.486-1.08l1.87-8.292a1 1 0 0 0-.316-.971l-6.386-5.61c-.66-.58-.306-1.666.568-1.747l8.463-.785a1 1 0 0 0 .826-.6l3.362-7.807Z" fill="#B8A996"/><path d="M13.781 1.133c.347-.806 1.49-.806 1.837 0L18.98 8.94a1 1 0 0 0 .826.6l8.464.785c.873.08 1.227 1.168.567 1.747l-6.385 5.61a1 1 0 0 0-.316.97l1.869 8.293c.193.856-.732 1.527-1.486 1.08l-7.309-4.34a1 1 0 0 0-1.02 0l-7.31 4.34c-.754.447-1.679-.224-1.486-1.08l1.87-8.292a1 1 0 0 0-.316-.971l-6.386-5.61c-.66-.58-.306-1.666.568-1.747l8.463-.785a1 1 0 0 0 .826-.6l3.362-7.807Z" fill="#000" fill-opacity=".1"/></svg>