<svg width="30" height="30" viewBox="0 0 30 30" fill="none" xmlns="http://www.w3.org/2000/svg"><g clip-path="url(#a)" fill="#00605F" stroke="#B6D4D6" stroke-width=".3"><path d="M8.024 1.932c2.772-1.495 5.743-2.09 8.86-1.635 5.822.848 9.915 4.027 11.955 9.493 1.98 5.3 1.02 10.269-2.613 14.64-2.306 2.776-5.324 4.42-8.897 4.989-3.186.508-6.227-.005-9.103-1.477a.832.832 0 0 0-.641-.074c-2.424.642-4.851 1.278-7.281 1.907H.302c-.03.009-.06.016-.092.024l.381-1.392c.535-1.955 1.064-3.885 1.597-5.81a.72.72 0 0 0-.069-.589A14.688 14.688 0 0 1 8.024 1.932ZM3.582 26.5l.033.123 1.21-.314c1.016-.263 2.015-.522 3.009-.794.149-.041.273-.053.39-.04a.937.937 0 0 1 .367.134c2.977 1.746 6.163 2.23 9.513 1.392 6.533-1.637 10.582-8.13 9.194-14.717l-.147.03.146-.03a12.516 12.516 0 0 0-14.203-9.758 12.082 12.082 0 0 0-6.422 3.05c-2.66 2.415-4.068 5.43-4.173 9.023-.075 2.579.626 4.952 2.025 7.114.057.087.087.16.099.23a.554.554 0 0 1-.023.25c-.283 1.004-.558 2.011-.837 3.035l-.308 1.127-.028.007V26.48l.155.02Z"/><path d="m10.173 8.186.028.003.027-.007c.292-.075.484-.021.63.098.158.128.28.346.392.635.332.865.698 1.717 1.066 2.565a.72.72 0 0 1 .069.35.678.678 0 0 1-.126.326c-.279.409-.58.802-.9 1.178a.748.748 0 0 0-.198.45.813.813 0 0 0 .136.461c1.23 2.062 2.948 3.561 5.191 4.454a.84.84 0 0 0 .519.056.793.793 0 0 0 .426-.296c.156-.196.316-.393.477-.59.209-.257.419-.515.623-.774.128-.163.204-.228.273-.251.062-.021.15-.018.329.053.895.356 1.75.788 2.614 1.225l.53.266c.07.035.105.077.127.123.023.05.034.116.031.205-.023.781-.148 1.332-.455 1.772-.308.441-.813.793-1.646 1.142-.915.385-1.872.299-2.847.029-3.548-.984-6.166-3.207-8.27-6.15-.661-.926-1.244-1.863-1.489-2.96-.348-1.56.037-2.899 1.185-4.022.334-.323.737-.404 1.258-.34Z"/></g><defs><clipPath id="a"><path fill="#fff" d="M0 0h30v30H0z"/></clipPath></defs></svg>