<svg width="135" height="129" viewBox="0 0 135 129" fill="none" xmlns="http://www.w3.org/2000/svg"><g clip-path="url(#a)"><mask id="b" style="mask-type:luminance" maskUnits="userSpaceOnUse" x="0" y="0" width="135" height="129"><path d="M135 0H0v129h135V0Z" fill="#fff"/></mask><g mask="url(#b)" fill="#125E5E"><path d="M33.35 59.075a16.79 16.79 0 0 1 1.895 2.089c.202.28.429.52.63.812.656.987 1.26 2.006 1.813 3.054.252.47.505.92.757 1.378a17.3 17.3 0 0 1 .884 1.784c.145.387-.6.197-.985-.47-.669-1.206-1.262-2.412-1.894-3.562a15.674 15.674 0 0 0-1.344-2.05 17.62 17.62 0 0 0-1.768-2.057 16.239 16.239 0 0 0-1.2-1.086 9.665 9.665 0 0 0-2.184-1.206 5.577 5.577 0 0 0-.915-.254l-.934-.133h-.41c-.512 0-.67-.07-.79-.312a.732.732 0 0 1-.075-.158c0-.172.17-.305.593-.324a6.83 6.83 0 0 1 3.68.844c.87.438 1.678.989 2.406 1.638l-.158.013ZM112.564 59.647c-.456.455-.878.943-1.263 1.46-.132.203-.265.4-.385.603a13.806 13.806 0 0 0-1.199 2.21 6.387 6.387 0 0 0-.36 1.06c-.09.473-.219.938-.385 1.39-.107.292-.631-.165-.575-.775a8.73 8.73 0 0 1 1.067-2.907c.335-.534.632-1.111.972-1.632.391-.573.826-1.114 1.301-1.619.287-.312.591-.609.909-.889a12.177 12.177 0 0 1 1.565-1.212 7.6 7.6 0 0 1 1.307-.699l.31-.12c.41 0 .555 0 .662.076l.07.082c0 .083-.095.203-.347.337-.74.394-1.453.838-2.134 1.327-.518.385-1.005.81-1.458 1.27l-.057.038ZM38.186 34.867c.183.699.341 1.41.48 2.134.038.263.1.522.183.774.145.933.252 1.86.36 2.787l.145 1.213a5.71 5.71 0 0 1 0 1.606c0 .324-.518-.114-.631-.68-.177-1.028-.398-2.05-.48-3.117a15.227 15.227 0 0 0-.41-1.904 63.56 63.56 0 0 0-.468-2.114c-.12-.425-.214-.857-.347-1.27-.19-.635-.385-1.27-.631-1.905a9.684 9.684 0 0 0-.707-1.34l-.17-.278c-.19-.35-.177-.508 0-.712a.414.414 0 0 1 .1-.133c.108-.133.322-.063.587.171a7.52 7.52 0 0 1 1.383 2.68c.246.698.455 1.41.631 2.127l-.025-.039ZM87.647 41.686a19.955 19.955 0 0 1-.517-2.184l-.152-.787c-.132-.953-.196-1.905-.278-2.838a10.423 10.423 0 0 0-.12-1.206c-.07-.529-.1-1.061-.094-1.594 0-.336.587 0 .631.635.107 1.073.215 2.133.278 3.225.063.657.164 1.31.303 1.956.115.717.27 1.427.467 2.126.132.432.259.857.416 1.27.246.631.535 1.244.865 1.835.253.463.556.895.827 1.346l.184.285c.214.388.227.534.082.699a.368.368 0 0 1-.095.12c-.12.115-.31 0-.493-.234a19.419 19.419 0 0 1-1.502-2.54 15.167 15.167 0 0 1-.84-2.114h.038Z"/><path d="M12.6 50.01c1.49 2.907 3.157 5.795 4.804 8.665 1.648 2.87 3.384 5.752 4.804 8.831 1.067 2.197 2.16 4.38 3.106 6.654a61.94 61.94 0 0 1 3.87 12.462c.417 2.15.662 4.33.732 6.52a45.322 45.322 0 0 1-.36 6.546 66.152 66.152 0 0 1-2.487 11.269 56.04 56.04 0 0 1-5.934 13.402c-.802 1.27-1.105.883-.922-.47.352-2.13.956-4.21 1.8-6.196a72.279 72.279 0 0 0 4.646-13.694 44.13 44.13 0 0 0 .922-14.361c-.632-5.784-2.898-11.555-5.366-17.034a223.446 223.446 0 0 0-2.128-4.533c-.707-1.498-1.515-2.92-2.33-4.38l-4.974-8.755c-.789-1.429-1.572-2.864-2.304-4.35-.36-.748-.72-1.485-1.041-2.266-.158-.4-.304-.8-.436-1.212a2.553 2.553 0 0 1 0-1.626 4.731 4.731 0 0 1 1.97-2.419 4.575 4.575 0 0 1 2.645-.552c.85.084 1.682.298 2.468.635a13.656 13.656 0 0 1 4.06 2.73 19.974 19.974 0 0 1 5.131 8.063l.24.736c.057.21.12.426.164.635a.395.395 0 0 0 .253.337l.215.114.353.14 1.484.603a25.8 25.8 0 0 1 2.98 1.441 18.992 18.992 0 0 1 6.988 6.984 14.905 14.905 0 0 1 1.622 4.012 3.397 3.397 0 0 1 0 2.006 3.78 3.78 0 0 1-.24.635c-.334.47-1.054-1.003-2.172-3.492a18.785 18.785 0 0 0-5.12-6.679 18.354 18.354 0 0 0-3.598-2.279c-.662-.324-1.332-.59-2.045-.908-.36-.146-.732-.285-1.2-.495a3.865 3.865 0 0 1-.946-.635 1.142 1.142 0 0 1-.335-.457 2.874 2.874 0 0 1-.24-.508l-.158-.673a1.424 1.424 0 0 0-.132-.45c-.05-.147-.17-.59-.278-.883a14.282 14.282 0 0 0-.72-1.701 17.423 17.423 0 0 0-1.956-3.175 13.514 13.514 0 0 0-5.05-4.177 4.447 4.447 0 0 0-2.728-.4 2.08 2.08 0 0 0-.947.533 1.739 1.739 0 0 0-.36.444c0 .083-.107.172-.157.267l-.177.12c.018.141.05.28.094.413.12.35.266.737.43 1.124.34.768.726 1.568 1.13 2.413l-.07.025ZM128.725 57.545c-1.654 2.267-3.352 4.501-4.804 6.8-.36.565-.72 1.206-1.029 1.726a9.404 9.404 0 0 0-.783 1.797 28.554 28.554 0 0 0-1.199 3.88 24.822 24.822 0 0 0-.6 2.907l-.372 2.958a55.567 55.567 0 0 0 .214 10.603 74.642 74.642 0 0 0 2.052 10.52 89.444 89.444 0 0 0 2.954 9.066c1.44 3.809 3.157 7.51 4.419 11.427.398 1.213 0 1.213-.89.388a16.01 16.01 0 0 1-3.024-4.61c-3.156-7.732-6.003-15.77-7.203-24.27a55.96 55.96 0 0 1-.347-15.701 36.356 36.356 0 0 1 2.279-8.457 20.358 20.358 0 0 1 2.115-3.809c.789-1.213 1.622-2.355 2.462-3.505l3.074-4.215a32.47 32.47 0 0 0 2.746-4.152c.104-.204.188-.416.253-.635a.44.44 0 0 0 0-.432c-.07-.089-.24-.349-.398-.52a3.353 3.353 0 0 0-.562-.47 4.121 4.121 0 0 0-.669-.343l-.732-.203a6 6 0 0 0-3.112.438 11.383 11.383 0 0 0-5.051 4.19 9.562 9.562 0 0 0-.663 1.048 7.302 7.302 0 0 0-.574 1.098c-.158.375-.36.736-.48 1.124l-.448 1.206-.139.292c-.095 0-.132.171-.221.229a2.078 2.078 0 0 1-.511.361l-.732.451c-.48.286-.928.635-1.37.94a19.155 19.155 0 0 0-2.406 2.235 20.732 20.732 0 0 0-1.534 1.993c-1.755 2.61-2.089 3.619-2.954 3.968-.168.112-.346.21-.53.292-.24.076-.31-.228-.253-.87a8.24 8.24 0 0 1 .941-2.73 19.5 19.5 0 0 1 3.598-4.939 18.412 18.412 0 0 1 2.405-2.025c.43-.305.878-.59 1.32-.857l.555-.33c.038-.152.089-.301.152-.445l.24-.635c.17-.444.41-.863.631-1.301.212-.417.45-.82.713-1.206.239-.424.512-.827.815-1.207a13.854 13.854 0 0 1 4.343-3.974 9.075 9.075 0 0 1 4.709-1.27c.906.021 1.794.254 2.595.68.441.195.846.463 1.199.793.189.143.355.315.493.508l.53.692c.138.31.224.64.252.978 0 .334-.044.667-.132.99a7.673 7.673 0 0 1-.48 1.206c-.339.68-.72 1.338-1.142 1.968a92.126 92.126 0 0 1-2.462 3.562l-.253-.203Z"/><path d="M27.297 18.418a11.856 11.856 0 0 0-1.894-1.956 8.379 8.379 0 0 0-1.06-.679 3.752 3.752 0 0 0-.468-.178h-.19a.227.227 0 0 0-.201.178 3.023 3.023 0 0 0-.17 1.054c-.002.94.082 1.876.252 2.8.12.698.277 1.403.442 2.114.164.711.36 1.485.505 2.171 1.117 5.08 2.405 10.158 3.314 15.351a117.18 117.18 0 0 1 1.08 6.933c.315 2.959.63 6.108-.455 9.104-.335.927-.745.59-1.036-.279a12.892 12.892 0 0 1-.561-3.81c0-2.92-.24-5.835-.72-8.716-.455-2.933-1.01-5.879-1.56-8.888-.662-3.556-1.792-7.244-2.562-10.87a24.154 24.154 0 0 1-.827-6.348c.021-.67.208-1.325.543-1.905a2.073 2.073 0 0 1 2.039-1.003 6.67 6.67 0 0 1 3.207 1.556 23.222 23.222 0 0 1 4.804 6.139 65.069 65.069 0 0 1 4.804 10.526 71.896 71.896 0 0 1 2.613 8.457c.133.635.265 1.27.373 1.904.126.878.126 1.77 0 2.648a1.985 1.985 0 0 1-.632 1.206c-.1.114-.208.222-.322.324-.29.197-.757-.775-1.047-2.413a80.234 80.234 0 0 0-4.596-15.046 58.424 58.424 0 0 0-2.525-5.41c-.442-.895-.979-1.707-1.471-2.539a24.466 24.466 0 0 0-1.711-2.33l.032-.095Z"/><path d="M41.14 19.37a40.94 40.94 0 0 0-1.982-4.673 17.78 17.78 0 0 0-2.733-4.056 3.512 3.512 0 0 0-2.273-1.315.685.685 0 0 0-.48.286 3.018 3.018 0 0 0-.132 1.111c.05 1.067.183 2.128.398 3.175.41 2.158.96 4.342 1.502 6.545.48 1.943.998 3.898 1.44 5.866.298 1.273.51 2.565.63 3.867a9.908 9.908 0 0 1-.384 4.031c-.36.832-.632.508-.84-.203a21.402 21.402 0 0 1-.802-3.174c-.795-4.832-2.405-9.822-3.415-15.047a36.666 36.666 0 0 1-.745-4.965c-.018-.5.03-.999.145-1.485a2.585 2.585 0 0 1 1.01-1.606c.485-.4 1.09-.624 1.717-.635a3.588 3.588 0 0 1 1.623.362 7.625 7.625 0 0 1 2.399 1.86c.619.697 1.174 1.45 1.66 2.247a32.942 32.942 0 0 1 2.525 4.825 53.688 53.688 0 0 1 2.165 6.273 85.076 85.076 0 0 1 2.052 9.745c.398 2.54.827 5.01 1.08 7.536.075.552.132 1.098.17 1.663.152 2.09 0 2.756-.631 3.213a2.22 2.22 0 0 1-.423.298c-.455.197-.884-.635-1.055-2.12-.561-4.444-1.054-9.034-1.956-13.625a64.113 64.113 0 0 0-2.702-9.974l.038-.025ZM54.486 33.649a63.947 63.947 0 0 0-.518-3.556c-.202-1.136-.423-2.412-.675-3.619-.177-.857-.442-1.695-.632-2.539a36.65 36.65 0 0 0-1.294-4.38 12.004 12.004 0 0 0-.921-1.982 2.646 2.646 0 0 0-1.206-1.206.626.626 0 0 0-.48.083 2.353 2.353 0 0 0-.55.482 4.108 4.108 0 0 0-.7 1.607c-.353 1.606-.177 3.396-.802 5.23-.214.579-.505.376-.782-.145a5.52 5.52 0 0 1-.739-2.413c.002-.97.074-1.94.215-2.901a5.773 5.773 0 0 1 1.464-3.174c.252-.242.53-.455.827-.635a2.727 2.727 0 0 1 3.384.482 7.75 7.75 0 0 1 1.717 2.718 55.9 55.9 0 0 1 2.203 6.558c.631 2.412 1.08 4.831 1.496 7.3.253 1.524.448 3.048.632 4.566.233 2.31.328 4.64.41 6.945 0 1.79.183 3.549.145 5.34.025.401.025.804 0 1.206-.133 1.473-.492 1.904-1.08 2.127-.129.052-.262.097-.397.133-.202 0-.36-.108-.505-.4a2.865 2.865 0 0 1-.265-1.206c-.12-3.067-.082-6.248-.284-9.48a93.85 93.85 0 0 0-.701-7.25l.038.109Z"/><path d="M62.421 72.007c.133-3.923-.195-7.916-.334-11.973 0-1.486-.133-2.971-.076-4.444.227-5.18.36-10.323.095-15.447a29.256 29.256 0 0 0-.96-6.615 4.914 4.914 0 0 0-.334-.895.745.745 0 0 0-.17-.267.532.532 0 0 0-.178-.159.39.39 0 0 0-.423 0 1.364 1.364 0 0 0-.176.146 2.648 2.648 0 0 0-.29.305 12.733 12.733 0 0 0-1.693 3.74c-.372.882-.63.634-.782-.204a8.101 8.101 0 0 1-.165-1.701c-.033-.89.186-1.77.632-2.54.26-.45.586-.858.966-1.212l.429-.35c.158-.095.322-.158.48-.24.316-.16.67-.23 1.022-.204a2.377 2.377 0 0 1 1.774 1.029l.328.431.177.324c.116.203.213.415.29.635a19.18 19.18 0 0 1 .948 4.724c.246 3.036.29 6.086.132 9.129 0 1.822-.107 3.625-.158 5.517-.05 1.892-.07 3.759-.07 5.555 0 4 .411 8.044.468 12.139a43.526 43.526 0 0 1-.467 7.58c-.288 1.92-.792 3.801-1.503 5.606a27.118 27.118 0 0 1-2.746 5.08 31.029 31.029 0 0 1-2.765 3.466 24.543 24.543 0 0 1-3.276 3.003c-.518.412-1.06.761-1.61 1.136-2.14 1.206-3.011 1.27-3.674.927a1.706 1.706 0 0 1-.442-.254c-.353-.35.442-.965 1.856-1.784a25.38 25.38 0 0 0 10.195-10.869 26.65 26.65 0 0 0 2.406-11.244l.094-.07ZM53.078 107.491c-.19 1.625-.423 3.244-.555 4.831 0 .59-.057 1.206-.095 1.784-.177 2.114-.334 4.228-.391 6.349v2.8c0 1.206.139 2.412.107 3.498 0 .279-.278.45-.663.184a2.424 2.424 0 0 1-.903-1.568 34.219 34.219 0 0 1-.094-7.454c.132-1.485.082-3.028.157-4.552.076-1.523.215-3.346.373-5.009l.372-3.066c.19-1.562.48-3.105.707-4.641.215-1.207.31-2.413.588-3.62.034-.264.085-.527.151-.786.36-.965.67-1.207 1.2-1.207h.328c.322.058.467.553.416 1.207-.296 2.006-.732 4.095-1.022 6.279a91.912 91.912 0 0 0-.631 4.831l-.045.14Z"/><path d="M34.468 114.214a45.056 45.056 0 0 0 4.703 1.403c.593.121 1.206.19 1.767.298 2.046.453 4.137.666 6.231.635a12.215 12.215 0 0 0 2.715-.406 31.491 31.491 0 0 0 3.257-1.213c.348-.12.524.222.442.724a2.237 2.237 0 0 1-1.2 1.575 11.14 11.14 0 0 1-3.87 1.098c-1.307.159-2.63.159-3.938 0-1.547-.184-3.157-.241-4.69-.534a46.41 46.41 0 0 1-5-1.206 55.535 55.535 0 0 1-3-1.003c-1.502-.546-2.979-1.206-4.418-1.777-1.143-.47-2.304-.845-3.434-1.385a7.248 7.248 0 0 1-.733-.387c-.877-.603-1.054-1.054-.877-1.568.04-.116.093-.227.158-.33.24-.279.631-.267 1.262-.07 1.894.635 3.883 1.619 5.934 2.413a60.983 60.983 0 0 0 4.634 1.714l.057.019ZM77.717 53.279c.663 1.904 1.345 3.809 2.128 5.644.782 1.835 1.628 3.81 2.24 5.77.474 1.436.941 2.87 1.326 4.312.67 2.54 1.263 5.079 2.096 7.51a32.518 32.518 0 0 0 3.194 6.984 20.723 20.723 0 0 0 4.388 5.079 21.125 21.125 0 0 0 7.525 3.745c.82.413.713.635-.152.927a4.268 4.268 0 0 1-1.78.293c-.401-.014-.802-.05-1.2-.109a10.948 10.948 0 0 1-1.199-.374 19.586 19.586 0 0 1-7.575-5.917 29.258 29.258 0 0 1-4.463-8.317c-1.2-3.555-2.197-7.25-3.277-10.793a51.42 51.42 0 0 0-1.995-5.714c-.782-1.904-1.679-3.765-2.398-5.714a69.43 69.43 0 0 1-1.314-3.618 113.565 113.565 0 0 1-1.13-3.625c-.258-.927-.441-1.905-.669-2.838a20.86 20.86 0 0 1-.467-2.889 17.81 17.81 0 0 1 .108-5.93 7.153 7.153 0 0 1 .864-2.292c.222-.48.606-.864 1.084-1.084a2.204 2.204 0 0 1 1.523-.122c.47.212.88.534 1.2.94.26.323.492.667.694 1.028.388.657.738 1.335 1.048 2.032l.777 1.784c.448 1.086.745 1.74.902 2.171.12.32.177.661.165 1.003.036.166.102.323.195.464a.217.217 0 0 1-.044.298h-.038a.93.93 0 0 1-.757 0 3.609 3.609 0 0 1-1.717-1.727c-.688-1.206-1.2-2.412-1.743-3.625a15.722 15.722 0 0 0-.865-1.606 3.1 3.1 0 0 0-.397-.514s.076-.077-.095.165c-.248.45-.422.936-.518 1.44a13.37 13.37 0 0 0-.176 3.62 46.252 46.252 0 0 0 2.594 11.567l-.082.032Z"/><path d="M80.83 26.036a66.869 66.869 0 0 0 .201 7.377c.07.908.227 1.804.322 2.692.321 3.198.808 6.377 1.459 9.524.309 1.39.669 2.78 1.079 4.12.265.87.574 1.714.884 2.54.275.822.593 1.63.953 2.418.227.432 0 .635-.543.406a4.21 4.21 0 0 1-1.894-1.834 33.986 33.986 0 0 1-1.957-5.397 49.447 49.447 0 0 1-1.117-5.606c-.316-2.24-.84-4.558-1.2-6.869a62.508 62.508 0 0 1-.555-7.682c-.03-1.612.05-3.224.24-4.825.13-1.244.43-2.463.89-3.625a5.04 5.04 0 0 1 1.2-1.702 3.178 3.178 0 0 1 2.064-.844 2.4 2.4 0 0 1 1.73.756c.37.406.683.864.927 1.358.38.856.712 1.734.991 2.628.133.375.278.737.398 1.111.461 1.39.385 1.905-.107 2.42a2.309 2.309 0 0 1-.322.336.566.566 0 0 1-.688-.108 2.634 2.634 0 0 1-.79-1.08c-.675-1.479-1.199-3.174-1.716-4.444-.091-.219-.222-.419-.385-.59-.215 0-.398.076-.695.52a7.648 7.648 0 0 0-.94 2.89 23.98 23.98 0 0 0-.297 3.618l-.133-.108Z"/><path d="M92.906 13.599a17.356 17.356 0 0 0-.43-2.476 3.829 3.829 0 0 0-.17-.54l-.107-.266a.133.133 0 0 0-.093-.116c-.017-.005-.035-.007-.052-.005a.63.63 0 0 0-.265.057 2.651 2.651 0 0 0-.518.184 3.64 3.64 0 0 0-.922.724 7.256 7.256 0 0 0-1.344 2.413 20.542 20.542 0 0 0-.865 4.037 59.372 59.372 0 0 0 .265 15.187 61.313 61.313 0 0 0 1.263 6.678c.732 2.807 1.584 5.556 2.398 8.298.278.857-.056.908-.757.375a7.706 7.706 0 0 1-2.399-3.333 49.79 49.79 0 0 1-2.21-8.819 62.51 62.51 0 0 1-.94-9.078 56.53 56.53 0 0 1 .423-11.27 14.997 14.997 0 0 1 1.61-4.704 6.853 6.853 0 0 1 1.73-2.057c.369-.265.772-.478 1.199-.635.223-.086.45-.16.682-.222l.864-.095a1.886 1.886 0 0 1 1.743 1.067c.16.27.296.552.41.844.095.254.164.508.24.75.583 2.498.905 5.051.96 7.618.094 1.904 0 3.809.107 5.675.039 1.86.188 3.715.448 5.555a41.262 41.262 0 0 0 2.146 8.19l.676 1.734c.84 2.164.909 2.94.55 3.625-.069.16-.153.314-.253.457-.322.387-1.08-.35-1.894-1.905a40.473 40.473 0 0 1-2.746-7.523 46.916 46.916 0 0 1-1.2-8.253c-.145-2.064-.12-4.165-.17-6.108a68.352 68.352 0 0 0-.423-5.904l.044-.159ZM107.293 27.268a193.84 193.84 0 0 0-.575-5.714 34.655 34.655 0 0 0-1.01-5.498 4.956 4.956 0 0 0-.555-1.206.286.286 0 0 0-.348-.12 1.256 1.256 0 0 0-.321.183 5.079 5.079 0 0 0-1.743 2.413 17.027 17.027 0 0 0-.934 3.384 42.873 42.873 0 0 0-.581 7.243c.004 2.184.141 4.366.41 6.533.177 1.378.398 2.768.588 4.14.189 1.371.448 2.73.631 4.107.145.832-.158.845-.758.242a8.787 8.787 0 0 1-.985-1.27 8.153 8.153 0 0 1-.826-2.12 51.54 51.54 0 0 1-.676-17.587c.23-1.665.598-3.309 1.098-4.914.292-.854.696-1.665 1.2-2.412l.442-.584c.17-.178.36-.35.543-.527.2-.165.41-.315.631-.45.107-.076.224-.136.347-.179l.505-.216a1.965 1.965 0 0 1 1.294 0c.369.15.694.39.947.699.223.26.41.548.556.857.236.49.428 1 .574 1.524.265.973.476 1.961.632 2.958.334 1.968.549 3.911.757 5.854l.695 7.174c.347 3.625.631 7.244 1.199 10.793a54.14 54.14 0 0 0 2.007 7.974c.202.565.423 1.098.632 1.65.827 2.032 1.199 2.584.959 3.289-.02.156-.056.309-.107.457-.145.425-1.08-.146-1.932-1.714-2.405-4.647-3.156-9.974-4.027-15.18-.297-1.943-.55-3.892-.789-5.834-.24-1.943-.386-3.898-.575-5.828l.095-.121ZM102.306 112.538c-.36-1.403-.739-2.806-1.2-4.19-.151-.521-.372-1.004-.517-1.511a118.122 118.122 0 0 0-1.654-5.371c-.253-.788-.575-1.562-.903-2.324a24.895 24.895 0 0 1-1.2-2.908c-.094-.305.24-.457.695-.374a1.953 1.953 0 0 1 1.326.965 29.54 29.54 0 0 1 2.398 6.113c.335 1.27.903 2.54 1.332 3.81.43 1.269.903 2.825 1.307 4.247l.821 2.673c.347 1.352.694 2.692 1.029 4.031.252 1.035.631 2.025.858 3.105.033.235.079.468.139.698.076.921-.069 1.206-.561 1.429l-.335.12c-.373.083-.72-.266-.915-.838-.632-1.689-1.067-3.523-1.56-5.396-.372-1.403-.719-2.813-1.117-4.216l.057-.063Z"/><path d="M117.64 112.017a23.737 23.737 0 0 1-4.034 1.34c-.493.133-.985.266-1.49.362a33.404 33.404 0 0 1-5.341.425h-2.399a9.694 9.694 0 0 1-3.017-.349c-.297-.114-.19-.476.12-.813a1.936 1.936 0 0 1 1.357-.635h5.814c.6.008 1.199-.052 1.787-.177.587-.096 1.199-.254 1.767-.388a26.104 26.104 0 0 0 3.788-1.136c.755-.298 1.49-.648 2.197-1.048a14.633 14.633 0 0 0 1.546-.99 8.9 8.9 0 0 0 1.408-1.206 13.889 13.889 0 0 0 1.717-2.178c.108-.165.183-.362.291-.533.378-.635.631-.756 1.199-.699h.322c.322.083.423.508.227 1.124a10.058 10.058 0 0 1-3.447 4.622c-.567.451-1.168.857-1.799 1.213l-.947.552-.984.457-.082.057ZM46.248 51.285a25.32 25.32 0 0 0-2.405 0c-.284 0-.575.076-.865.102-1.02.08-2.034.22-3.037.419a9.25 9.25 0 0 0-1.294.4c-.527.255-1.074.468-1.635.635-.36.082-.322-.921.303-1.207a11.392 11.392 0 0 1 3.599-1.136c.744-.095 1.502-.28 2.26-.375.828-.091 1.66-.14 2.493-.146h1.54l2.267.064h2.165c.48 0 .631.14.694.495v.241c0 .28-.202.483-.549.527a18.73 18.73 0 0 1-3.207.159c-.795 0-1.597-.07-2.405-.07l.076-.108ZM92.37 51.025c.63-.387 1.35-.75 2.063-1.08.253-.133.505-.272.77-.386a13.197 13.197 0 0 1 2.949-.82c.448-.057.89-.145 1.344-.177a3.26 3.26 0 0 1 1.743.203c.183.07.088.362-.108.635-.195.273-.479.578-.745.59-.972.108-1.931.133-2.986.311a6.292 6.292 0 0 0-1.818.705c-.67.306-1.322.648-1.957 1.022-.397.229-.789.47-1.2.724-.595.37-1.168.775-1.716 1.212-.41.337-.783.737-1.2 1.073-.094.083-.17.166-.265.242-.347.279-.543.254-.802.095a1.107 1.107 0 0 1-.17-.12.797.797 0 0 1 0-.712c.278-.423.586-.826.922-1.206.381-.363.784-.702 1.206-1.016.606-.477 1.238-.92 1.893-1.327l.076.032ZM10.486 3.549c2.342 1.619 4.898 3.124 6.414 5.625.782 1.27 2.809.108 2.02-1.206-1.73-2.864-4.565-4.622-7.21-6.482-1.199-.857-2.398 1.206-1.199 2.038l-.025.025ZM1.445 24.094c2.98-.432 6.004 0 9.009-.134.266-.06.505-.208.676-.422a1.21 1.21 0 0 0-.676-1.933c-3.232.108-6.414-.254-9.608.216-1.49.222-.852 2.488.631 2.273h-.032ZM118.517.52c-1.824 2.585-3.819 5.13-4.463 8.324-.303 1.473 1.957 2.114 2.253.635.632-2.971 2.526-5.352 4.23-7.765.878-1.212-1.199-2.419-2.02-1.212V.52ZM133.529 14.564c-3.061.635-5.845 2.076-8.838 3.054-1.42.489-.808 2.755.632 2.273 2.96-.978 5.751-2.413 8.838-3.054 1.477-.305.852-2.54-.632-2.273ZM36.943 123.756a1.22 1.22 0 0 0 .094-.305c0-.12-.082-.19-.145-.178a.747.747 0 0 0-.303.261l-.152.254a5.28 5.28 0 0 0-.435.812 13.032 13.032 0 0 1-1.2 1.943 3.277 3.277 0 0 1-1.37 1.137 1.842 1.842 0 0 1-.827.133 1.704 1.704 0 0 1-.84-.241 1.991 1.991 0 0 1-.334-.204l-.208-.196a2.496 2.496 0 0 1-.322-.4c-.082-.146-.196-.299-.252-.432l-.228-.483a3.828 3.828 0 0 1 0-2.069c.108-.487.247-.966.417-1.435.328-.87.688-1.663 1.023-2.413.333-.69.601-1.411.801-2.152.013-.12.013-.241 0-.362.099-.02.196-.048.29-.082a.516.516 0 0 0 .159-.076h.056v.108l-.132.317h-.177a.472.472 0 0 0-.372.133c-.11.079-.212.168-.303.267-.11.116-.209.242-.297.375a10.34 10.34 0 0 0-.997 1.999l-.865 2.324c-.152.413-.329.816-.53 1.206a3.4 3.4 0 0 1-1.2 1.34 6.362 6.362 0 0 1-.827.349c-.151.055-.308.091-.467.108a1.717 1.717 0 0 1-.631 0 1.48 1.48 0 0 1-1.263-1.016 2.43 2.43 0 0 1-.133-1.085c.126-.996.372-1.972.733-2.908.517-1.46 1.06-2.889 1.515-4.286a9.23 9.23 0 0 0 .429-1.98v-.292l.17-.108a.241.241 0 0 0 0 .095v.108a.324.324 0 0 0-.157 0 5.673 5.673 0 0 0-1.32 1.981c-.398.831-.757 1.726-1.13 2.622-.372.895-.732 1.796-1.2 2.704-.238.462-.51.906-.814 1.327-.345.5-.8.913-1.332 1.206-.194.108-.41.171-.63.184a1.18 1.18 0 0 1-.399-.082c-.202-.114-.265-.222-.24-.33.026-.108.493-.362.632-.832a39.341 39.341 0 0 1 1.262-4.634 28.838 28.838 0 0 1 2.475-5.079 4.77 4.77 0 0 1 1.477-1.391c.212-.126.44-.224.676-.292.27-.067.548-.099.827-.095a2.452 2.452 0 0 1 1.824.933c.19.259.332.549.423.857.052.209.092.421.12.635.032.329.032.661 0 .99-.067.52-.172 1.033-.316 1.537a42.282 42.282 0 0 1-1.824 5.079c-.286.68-.497 1.388-.631 2.114v.07l-.398.095a.87.87 0 0 0-.297.102l-.158.082a.12.12 0 0 0 0-.095.787.787 0 0 0 .057-.343v-.406h.448c.082 0 .095 0 .31-.375.195-.353.364-.72.505-1.098.448-1.067.852-2.235 1.408-3.422.297-.639.659-1.245 1.08-1.809.268-.352.587-.663.946-.921l.688-.336.745-.191h.764c.305.039.598.15.852.324.336.216.6.527.758.895.126.277.195.578.202.882a6.38 6.38 0 0 1-.392 2.305c-.435 1.206-.953 2.413-1.37 3.492-.334.844-.694 1.86-.543 2.006v.121s.076.152.064.108c-.101.096-.194.2-.278.311a.43.43 0 0 0-.133.241.464.464 0 0 0-.07-.241c0-.095-.182-.4-.195-.362a.515.515 0 0 0 .17-.159 4.46 4.46 0 0 0 .386-.527c.265-.4.517-.863.77-1.333l1.092-2.133a15.785 15.785 0 0 1 2.216-3.771c.313-.356.67-.672 1.06-.94.38-.298.85-.459 1.332-.457a1.59 1.59 0 0 1 1.2.527c.231.276.37.618.397.978a7.018 7.018 0 0 1-.145 2.177 20.363 20.363 0 0 1-.997 3.27c-.221.59-.41 1.193-.575 1.803a4.403 4.403 0 0 0-.132 1.003v.235a.834.834 0 0 0 .094.184c0 .133.133 0-.145.311-.07.063-.082.248-.082.159a.327.327 0 0 0 0-.191c0-.076-.057 0-.12-.197l.076-.069c.073-.077.137-.162.19-.254.152-.234.294-.476.422-.724.55-1.073 1.004-2.171 1.572-3.416.359-.779.759-1.538 1.2-2.273a9.103 9.103 0 0 1 1.344-1.726 2.812 2.812 0 0 1 1.667-.845 2.22 2.22 0 0 1 1.767.927c.331.952.377 1.981.133 2.959-.095.635-.278 1.269-.435 1.955l-.404 1.682a7.117 7.117 0 0 0-.215 1.207.692.692 0 0 0 0 .228h-.133c-.1.017-.197.045-.29.083-.265 0-.398.279-.316.127a1.226 1.226 0 0 0 0-.305 1.83 1.83 0 0 0-.107-.482l.278-.216a1.41 1.41 0 0 0 .309-.33c.228-.293.418-.613.568-.953.289-.717.538-1.451.745-2.196a8.601 8.601 0 0 1 1.509-3.283c.15-.169.315-.324.492-.463.169-.108.346-.202.53-.28.306-.101.636-.101.941 0 .207.09.391.227.537.4.145.254-.158.496-.278.826a15.196 15.196 0 0 0-.511 1.809c-.183.749-.373 1.581-.632 2.413a12.47 12.47 0 0 1-1.104 2.806 5.502 5.502 0 0 1-2.103 2.05 2.786 2.786 0 0 1-.315.134l-.442.133a2.902 2.902 0 0 1-.745 0 2.462 2.462 0 0 1-1.01-.425 2.435 2.435 0 0 1-.631-.762c0-.121-.108-.241-.152-.362l-.063-.241a4.337 4.337 0 0 1-.07-.762c.007-.32.039-.638.095-.952.078-.496.182-.988.31-1.473l.132-.521-.865 1.962a24.36 24.36 0 0 1-.877 1.962 6.544 6.544 0 0 1-.632 1.123c-.08.117-.168.228-.265.331-.108.14-.233.266-.372.374a2.444 2.444 0 0 1-2.992.298 1.412 1.412 0 0 1-.348-.273 3.47 3.47 0 0 1-.814-1.174 4.023 4.023 0 0 1-.29-1.905c.013-.234.043-.468.088-.698v-.381s.07-.133.12-.216l.272-.203Z"/><path d="M117.223 112.932a2.886 2.886 0 0 0-.183-.432c.132-.097.247-.215.341-.349a.721.721 0 0 0 .176-.254.28.28 0 0 0 0-.108.205.205 0 0 0 0 .12v-.108c.063.072.14.128.228.166.128.081.266.148.41.196a1.016 1.016 0 0 0 0 .191 4.667 4.667 0 0 0 0 .603v.959l.398 3.028c.12.851.169 1.712.145 2.571a5.21 5.21 0 0 1-.291 1.549 3.61 3.61 0 0 1-.517.978 1.866 1.866 0 0 1-.48.432c-.261.15-.552.237-.852.254a1.38 1.38 0 0 1-.783-.305 3.23 3.23 0 0 1-.505-.381 5.572 5.572 0 0 1-1.199-1.949c-.386-1.048-.745-2.413-1.067-3.619a16.865 16.865 0 0 0-.556-1.593 3.006 3.006 0 0 0-.334-.635l-.108-.134c.025-.068.057-.134.095-.196 0 .088.088.184 0 .158l-.145.108-.108.121-.056.063-.632-.52h.108c.126.038.246.07.372.095h.24v.108c.032.279.076.552.133.825.332 1.303.577 2.626.732 3.962a5.033 5.033 0 0 1-.385 2.654c-.219.394-.54.72-.929.944-.39.224-.832.336-1.281.325a1.69 1.69 0 0 1-1.332-.571 4.632 4.632 0 0 1-.909-2.413c-.101-.634-.158-1.269-.227-1.904a17.481 17.481 0 0 0-.265-1.765 3.513 3.513 0 0 0-.531-1.352.452.452 0 0 0-.397-.204v-.158a.753.753 0 0 0 .214.133v.076a7.665 7.665 0 0 0 .247 2c.183.799.327 1.606.429 2.419.044.437.044.877 0 1.314a2.456 2.456 0 0 1-.556 1.499.954.954 0 0 1-.751.336c-.17 0-.227 0-.24-.146-.012-.146.284-.406.322-.775 0-.634-.757-1.796-1.262-3.549a20.434 20.434 0 0 1-.455-1.784 6.432 6.432 0 0 1-.132-1.098 2.61 2.61 0 0 1 .631-1.847 2.138 2.138 0 0 1 1.206-.635c.174-.019.349-.019.524 0 .155.008.309.029.46.063a2.86 2.86 0 0 1 1.56.889 5.04 5.04 0 0 1 1.054 2.26c.221 1.199.373 2.409.454 3.625v.673a.18.18 0 0 0 .024.091.177.177 0 0 0 .065.068c.05.019.105.016.154-.007a.2.2 0 0 0 .105-.114v-.787a6.884 6.884 0 0 0-.171-1.212c-.145-.927-.385-1.835-.574-2.946a2.987 2.987 0 0 1 0-1.206 1.42 1.42 0 0 1 .296-.553l.158-.184c.121-.134.254-.255.398-.362.375-.325.85-.509 1.345-.52a2.007 2.007 0 0 1 1.376.59c.258.243.481.52.663.825l.214.388.133.241c0 .152.12.298.17.457.051.159.19.635.284.965.052.201.117.398.196.59.082.21.164.483.398.438.233-.044.252-.253.271-.412a2.622 2.622 0 0 0 0-.546c0-.368-.069-.768-.107-1.206v-.794a6.242 6.242 0 0 1 .158-1.936c.072-.285.203-.551.385-.781.246-.318.602-.529.997-.591.386-.06.781.028 1.105.248.239.171.442.386.6.635a7.46 7.46 0 0 1 .89 2.133c.379 1.339.631 2.66 1.004 3.923.218.89.558 1.744 1.01 2.54.239.298.372.387.517.374.145-.012.095.159.19-.203a6.975 6.975 0 0 0-.575-2.584c-.334-.907-.77-1.828-1.199-2.768a21.703 21.703 0 0 1-.89-2.317 3.296 3.296 0 0 1-.12-1.568c.051-.202.131-.394.24-.571.142-.188.317-.347.517-.47.233-.131.478-.237.733-.318a2.31 2.31 0 0 1 1.862.248c.448.289.831.67 1.123 1.117.466.709.87 1.456 1.206 2.235l.852 1.816c1.067 2.158 1.32 2.235 1.307 3.244 0 .209.095.425.108.635.012.209-.253.508-.91.425a3.539 3.539 0 0 1-2.14-1.593 22.34 22.34 0 0 1-2.013-3.975 9.171 9.171 0 0 0-.808-1.511l-.133-.133c-.069 0 .133-.203.158-.311a.594.594 0 0 0 0 .146.632.632 0 0 0 0 .267h-.164c-.998-1.854-.278-.521-.493-.934-.075-.069.07.07.164.083.178.056.359.096.543.121h.348v.088c0 .108.05.216.082.324.208.635.454 1.206.719 1.791l.928 1.987c.335.742.619 1.505.853 2.285.238.712.36 1.458.359 2.21a3.337 3.337 0 0 1-.631 1.86 2.792 2.792 0 0 1-2.052 1.073 3.003 3.003 0 0 1-1.931-.457 3.94 3.94 0 0 1-1.118-1.073 7.015 7.015 0 0 1-.928-1.949 31.08 31.08 0 0 1-.852-3.391 23.681 23.681 0 0 0-.732-2.945l.322-.146Z"/></g></g><defs><clipPath id="a"><path fill="#fff" d="M0 0h135v129H0z"/></clipPath></defs></svg>