<svg width="78" height="154" viewBox="0 0 78 154" fill="none" xmlns="http://www.w3.org/2000/svg"><g clip-path="url(#a)"><mask id="b" style="mask-type:luminance" maskUnits="userSpaceOnUse" x="0" y="0" width="78" height="154"><path d="M78 0H0v154h78V0Z" fill="#fff"/></mask><g mask="url(#b)"><path d="M18.01 65.276a29.807 29.807 0 0 1-.886 3.802c-.729 1.959-2.47.26-3.604.805-.57 2.896.228 3.803 3.673 4.69 2.185.538 4.87-1.382 5.478-3.866.823-3.353.108-4.214-4.66-5.457M65.505 5.723l-.418-.298-.52.931a62.672 62.672 0 0 1-9.765 13.372c-3.856 4.056-7.491 8.328-11.399 12.308-3.907 3.98-8.08 7.605-12.032 11.483-3.078 3.017-5.997 6.186-9.258 9.57 1.19.33 1.81.634 2.425.634 4.211-.051 8.423-.159 12.628-.26 4.724-.12 8.827-2.25 12.71-4.532 2.374-1.394 4.198-3.802 6.13-5.862a27.324 27.324 0 0 0 5.699-9.113c.88-2.39 1.146-5.038 1.47-7.605.854-6.87 1.589-13.758 2.367-20.64M18.466 51.662c1.843-2.446 3.293-4.88 5.218-6.832 3.946-3.999 8.113-7.782 12.254-11.578 5.066-4.671 10.468-9.05 15.3-13.943 3.913-3.986 7.206-8.587 10.766-12.91-.102-.132-.21-.259-.31-.386-1.698.57-3.363 1.268-5.067 1.699-6.01 1.61-11.969 3.492-18.067 4.632-6.91 1.268-13.084 3.803-17.947 8.873-2.387 2.535-4.965 5.07-5.737 8.67-.374 1.755-.47 3.58-.678 5.374-.703 5.931 1.634 11.046 4.274 16.4M72.516 154c-.038-5.59-1.799-10.774-4.484-15.508-2.963-5.247-6.58-10.14-9.562-15.362a51.253 51.253 0 0 0-11.215-13.613 179.544 179.544 0 0 0-5.934-4.879 10.206 10.206 0 0 1-3.426-4.329c-.5-1.267-1.488-2.364-2.198-3.574-.525-.906-.36-1.585.862-1.413 5.402.766 9.974-1.902 14.787-3.556a3.724 3.724 0 0 0 1.526-1.267c-2.793-.634-5.554-.824-8.233.17-1.374.514-2.153-.069-2.57-1.108-.102-.254.911-1.217 1.563-1.47 3.344-1.312 6.764-2.434 10.133-3.765a28.578 28.578 0 0 0 3.685-2.123 32.392 32.392 0 0 0-.145-.83c-1.634-.032-3.312-.323-4.89-.032-2.76.514-5.464 1.369-8.187 2.117-1.634.444-3.28 1.597-4.775-.78.246-.364.565-.672.937-.906 3.135-1.496 6.364-2.814 9.455-4.436a45.813 45.813 0 0 0 6.89-4.278c.899-.69 1.159-2.205 1.792-3.51-2.02-1.205-4.243-.92-6.08-.267a109.08 109.08 0 0 0-11.151 4.937c-1.812.88-3.395 2.218-5.149 3.238-.85.365-1.735.643-2.64.83 0-2.452-.096-4.436 0-6.375.183-3.169-1.197-5.976-2.439-8.714-1.583-3.492-6.801-5.577-10.575-4.715-1.9.43-1.723 1.965-2.002 3.27-.278 1.306.71 1.534 1.679 1.901 1.22.408 2.39.952 3.489 1.623 2.476 1.59 2.951 5.627 1.051 8.238-3.47 4.766-9.904 3.803-13.166.33-1.538-1.66-.968-3.967-.57-6.04.064-.236.156-.463.273-.678.633-1.35 1.393-3.073-.285-3.802-.741-.31-2.647.957-3.35 1.977A23.08 23.08 0 0 0 3.496 77.66c-.203 4.715.057 9.341 1.861 13.708A37.856 37.856 0 0 0 13.09 103.3c3.8 3.949 7.7 7.789 11.272 11.921 2.273 2.624 4.097 5.653 6.003 8.575a67.396 67.396 0 0 1 4.06 6.831 93.102 93.102 0 0 1 3.907 8.974c1.76 4.76 3.312 9.595 4.946 14.399h-2.92c-1.266-3.707-2.463-7.44-3.8-11.11a61.068 61.068 0 0 0-3.489-8.333c-2.533-4.576-5.262-9.025-8.074-13.417a45.301 45.301 0 0 0-5.066-6.698c-2.299-2.44-4.965-4.525-7.384-6.845-.798-.76-1.304-1.819-1.988-2.693a57.326 57.326 0 0 1-7.897-12.77A35.057 35.057 0 0 1 .082 77.266c.083-3.587.374-7.066 2.495-9.994a32.944 32.944 0 0 1 5.421-5.66c.716-.633 2.166-.424 3.287-.43.827.086 1.644.254 2.438.5 1.165-2.535 2.337-4.962 3.382-7.459a2.327 2.327 0 0 0-.317-1.641c-2.42-4.525-4.68-9.221-4.895-14.355-.254-5.95.278-11.844 4.654-16.75 4.174-4.676 8.993-8.359 14.907-10.228 4.655-1.47 9.614-1.946 14.313-3.296 5.92-1.692 11.721-3.802 17.56-5.798.811-.395 1.59-.852 2.33-1.37.57-.31 1.191-.525 1.786-.785.26.716.798 1.451.735 2.136a881.917 881.917 0 0 1-1.9 17.605c-.57 4.627-1.083 9.285-2.033 13.841a20.102 20.102 0 0 1-2.894 6.806c-4.996 7.453-11.095 13.48-20.296 15.28-2.691.526-5.49.526-8.233.634-2.134.101-4.268 0-6.49.253 3.115 1.8 6.18 3.657 7.56 7.022 1.33 3.232 2.185 6.661 3.218 9.912 5.142-2.87 10.626-6.204 17.098-6.8a10.91 10.91 0 0 1 5.161.919c1.995.88 1.976 2.13 1.267 4.189a8.475 8.475 0 0 1-4.712 5.07c-.808.467-1.58.997-2.305 1.584 1.653.419 3.008.704 4.319 1.122 1.19.38 2.444 1.027 2.153 2.49a4.557 4.557 0 0 1-1.627 2.707 59.824 59.824 0 0 1-5.915 3.124c.32.155.653.285.994.387 1.267.24 2.584.785 2.565 2.135 0 .888-.874 1.902-1.609 2.599a8.561 8.561 0 0 1-2.805 1.603c-2.692.995-5.427 1.901-8.15 2.789-.97.317-1.957.557-3.319.938a24.033 24.033 0 0 0 1.78 2.23c5.117 5.007 10.506 9.754 15.306 15.033 3.502 3.859 6.421 8.289 9.277 12.675a86.913 86.913 0 0 1 6.637 11.876c1.685 3.764 2.647 7.865 3.945 11.807.228.684.551 1.337.836 2.002l-5.49.032Z" fill="#125E5E"/></g></g><defs><clipPath id="a"><path fill="#fff" d="M0 0h78v154H0z"/></clipPath></defs></svg>