<svg width="65" height="129" viewBox="0 0 65 129" fill="none" xmlns="http://www.w3.org/2000/svg"><g clip-path="url(#a)"><mask id="b" style="mask-type:luminance" maskUnits="userSpaceOnUse" x="0" y="0" width="65" height="130"><path d="M65 0H0v129.005h65V0Z" fill="#fff"/></mask><g mask="url(#b)"><path d="M9.028 57.879c.21-.821.428-1.622.598-2.429.055-.244.018-.5-.102-.719-.322-.449-.679-.872-1.066-1.268a.974.974 0 0 0-.53-.277c-.068 0-.268.268-.253.399.156 1.574.287 3.167 1.353 4.299m47.159-4.056c-.487.447-.94.772-1.31 1.156-.37.383-.735.87-1.085 1.292 1.139 1.457 1.085 2.647-.053 4.066-.429.534-.765 1.136-1.149 1.71 1.947-.695 3.893-5.344 3.596-8.224Zm3.81-33.032a.97.97 0 0 0-.092-.384c-.784-1.457-1.519-3.002-2.4-4.425a20.564 20.564 0 0 0-4.19-4.596c-.35-.306-.808-.65-1.163 0-1.09 2.065-2.19 4.13-3.227 6.223a1.129 1.129 0 0 0 .268.971c.487.54 1.28.89 1.635 1.496 1.26 2.167 4.512 2.517 6.327 1.778.866-.35 1.752-.665 2.823-1.068M29.609 2.876c-1.226.247-2.676.753-4.141.801-2.794.097-4.935 1.71-6.872 3.216a72.134 72.134 0 0 0-8.76 8.37c-1.611 1.763-2.716 3.993-3.996 6.043a1.091 1.091 0 0 0 .044 1.034c1.523 1.458 1.844 3.294 1.771 5.3-.073 2.006-.486 4.275 1.5 5.83.072.058.063.218.126.296.9 1.127 1.81 2.249 2.92 3.594.277-.7.443-1.015.53-1.345.604-2.298 1.159-4.605 1.801-6.893 1.027-3.678 2.993-6.413 7.16-6.864 1.138-.122 1.415-.646 1.192-1.768a4.223 4.223 0 0 1-.088-1.705A8.502 8.502 0 0 1 25.2 14.51c1.616-1.57 3.728-1.317 5.67-1.696.68-.09 1.354-.218 2.02-.383 1.265-.413 2.034-1.385 1.863-2.347a17.336 17.336 0 0 0-.68-2.564c-.196-.554-.687-1.03-.785-1.589-.218-1.214-1.094-1.734-2.034-2.244-.486-.267-.973-.486-1.6-.83m-1.135 56.572c-.097-.321-.267-.588-.224-.821.176-1.244.423-2.477.74-3.692.574-1.943 1.46-3.886 1.854-5.863a4.01 4.01 0 0 0-1.499-4.018c-1.207-.971-2.053-3.439-1.543-4.906.322-.923.774-1.797 1.13-2.71.19-.35.266-.748.219-1.142-.78-2.225-.54-4.523-.448-6.8.039-.846.56-1.691.973-2.488a.812.812 0 0 1 1.27-.335c.917.492 1.87.913 2.852 1.258 1.329.486 1.903 1.457 2.117 2.74.215 1.282.234 2.468.594 3.624.282.927.438 2.06 1.791 2.35 1.178.258 1.246-.796 1.757-1.272.886-.821 3.008-1.258 4.01-.549.871.622 1.611 1.428 2.477 2.055a2.046 2.046 0 0 1 .89 2.264c-.223.971-.549 1.913-.87 2.997.73.08 1.451.225 2.156.432 1.65.632 3.3 1.287 4.866 2.08 3.018 1.51 2.609 5.104.974 6.562-.2.236-.363.499-.487.782l.292.262c.376-.286.72-.612 1.027-.971.925-1.346 1.874-2.687 2.667-4.11a25.755 25.755 0 0 0 2.205-4.712c.569-1.85.764-3.818 1.095-5.742.515-3.002.944-6.018.574-9.074a21.944 21.944 0 0 0-.764-3.803c-.258-.836-.91-1.249-1.869-.734-.599.32-1.265.748-1.893.729a27.37 27.37 0 0 1-5.037-.505c-.823-.18-1.587-.831-2.268-1.4-.974-.806-1.762-1.82-2.755-2.579-1.09-.83-1.255-1.156-.608-2.428 1.207-2.352 2.375-4.722 3.626-7.044.486-.87.272-1.55-.458-1.943-2.346-1.331-4.526-2.997-7.241-3.6-1.232-.272-2.434-.724-3.67-.932a32.102 32.102 0 0 0-3.752-.282c-.448.01-.894.056-1.334.136.774 1.506 1.533 2.812 2.132 4.187 1.49 3.4 1.134 6.053-3.086 6.888-1.46.287-2.954.33-4.38.666-2.633.617-4.312 3.687-3.63 6.315.185.714.428 1.651-.424 2.064-1.032.51-2.131.873-3.265 1.074-1.382.233-2.511.772-3.164 1.987a19.642 19.642 0 0 0-1.542 3.555c-.75 2.43-1.363 4.945-2.035 7.418-.277 1.02-1.84 1.943-2.647 1.316a29.472 29.472 0 0 1-3.529-3.313c-.554-.578-.86-1.394-1.425-1.943a4.638 4.638 0 0 1-1.431-4.08c.073-1.33.028-2.665-.137-3.988a4.637 4.637 0 0 0-.486-1.195c-.19.243-.292.316-.317.408-1.65 5.615-1.46 11.245-.116 16.87.74 3.105 2.472 5.781 3.893 8.584 1.596 3.167 4.672 4.858 7.266 7.02.657.548 1.572.791 2.224 1.34 2.92 2.429 6.395 3.371 10.02 3.682a44.92 44.92 0 0 0 8.002-.102c1.684-.155 3.338-.787 4.954-1.345 1.46-.486 2.798-1.346 4.268-1.75 3.256-.903 5.602-3.084 8.02-5.134-.428-.971-.846-1.753-1.143-2.599a.971.971 0 0 1 .272-.903c1.421-.602 1.314-1.822 1.363-3.017.049-1.195-.798-1.33-1.596-1.603-.205-.068-.37-.228-.575-.306-1.275-.486-2.54-1.015-3.84-1.457-.773-.253-1.615-.296-2.399-.52-.92-.257-1.158-.971-.876-1.797.229-.685.584-1.326.837-2.006.429-1.147-.243-2.536-1.494-3.163-.813-.408-1.538 0-2.34.972-.4.486-1.018 1.088-1.587 1.151-2.341.262-4.896-1.754-5.427-3.978a30.9 30.9 0 0 1-.618-3.848 2.256 2.256 0 0 0-1.732-2.117c-.662-.156-1.008.067-1.027.694-.054 1.545-.258 3.119 0 4.625.326 2.123.657 4.114-.788 6.009a2.216 2.216 0 0 0-.176 1.87 11.977 11.977 0 0 0 1.835 3.254c1.46 1.744 1.645 3.702 1.07 5.698a55.898 55.898 0 0 1-2.282 5.975c-.423 1.01-.813 2.099-2.073 2.696M3.008 128.961c.486-3.342.924-6.689 1.46-10.021.93-5.655 2.005-11.285 2.861-16.949.857-5.664 1.485-11.362 2.278-17.035.292-2.075.788-4.115 1.168-6.175.25-1.096.413-2.21.487-3.332a2.35 2.35 0 0 0-.77-1.569c-1.26-1.127-2.632-2.132-3.946-3.201a4.378 4.378 0 0 1-.886-.918 39.656 39.656 0 0 1-4.322-8.671 19.146 19.146 0 0 1-1.216-8.953c.204-1.493.513-2.97.924-4.42.336-1.283.974-2.366 2.434-2.487-1.227-4.416-2.434-8.744-2.682-13.247a21.959 21.959 0 0 1 1.64-10.201C4.463 17.05 7.66 13.29 10.975 9.55a27.713 27.713 0 0 1 3.572-3.473c1.041-.816 2.33-1.317 3.509-1.943 2.092-1.142 4.185-2.293 6.278-3.43.203-.15.448-.236.7-.243 2.565.588 5.004-.524 7.52-.485 3.226.029 6.429.209 9.456 1.564.822.369 1.834.277 2.7.573a17.57 17.57 0 0 1 3.86 1.642 57.08 57.08 0 0 1 6.813 4.97 25.98 25.98 0 0 1 4.93 6.11 32.137 32.137 0 0 1 4.439 12.873 30.515 30.515 0 0 1-.774 11.605c-.487 1.807-1.387 3.507-2.17 5.222-.356.768-.487 1.234.52 1.56 1.124.378 1.266 1.457 1.227 2.428-.151 3.643-.205 7.287-.643 10.925a35.894 35.894 0 0 1-1.844 7.36c-.886 2.545-2.151 4.954-3.173 7.456a5.484 5.484 0 0 0-.36 2.21 59.4 59.4 0 0 0 1.343 9.832c.613 3.09.905 6.232 1.406 9.341.502 3.11 1.183 6.228 1.626 9.361.36 2.575.486 5.188.715 7.772.282 2.915.633 5.829.9 8.744.224 2.487.375 4.974.555 7.466h-1.533c-.365-4.085-.69-8.17-1.1-12.246-.452-4.59-.939-9.181-1.489-13.762-.267-2.225-.73-4.425-1.075-6.64-.516-3.328-1.037-6.655-1.509-9.987-.487-3.551-1.085-7.093-1.353-10.687a9.084 9.084 0 0 1 .93-4.256c.827-1.787 2.292-3.24 2.715-5.27.511-2.429 1.402-4.824 1.689-7.287.404-3.478.419-7 .55-10.502a4.106 4.106 0 0 0-.438-1.346c-.458.229-1.037.345-1.348.7-1.173 1.355-1.655 3.021-1.986 4.756-.428 2.239-.856 4.478-1.372 6.703a6.245 6.245 0 0 1-2.784 4.12c-.589.364-2.745.31-2.837-.19a4.093 4.093 0 0 1 .301-2.21c.297-.724.974-1.288 1.314-1.992a5.882 5.882 0 0 0 .302-1.632l-.37-.194c-.418.247-.846.486-1.255.743-.491.373-1.001.72-1.529 1.04-2.598 1.311-4.603 3.065-5.806 5.872-1.372 3.192-1.508 6.447-1.338 9.779.117 2.268.487 4.532.458 6.8-.073 4.14-.385 8.259-.58 12.412-.36 7.733-.783 15.462-1.026 23.2-.127 4.013.073 8.035.126 12.057h-1.752c0-1.312.073-2.623.059-3.935-.044-3.225-.224-6.451-.142-9.672.078-2.914.487-5.829.648-8.743.355-7.559.637-15.122.973-22.68a32.065 32.065 0 0 0-.292-6.544c-.336-2.06-.175-4.221-.063-6.315.126-2.268.287-4.561 1.43-6.63.247-.526.455-1.068.623-1.623-6.535 2.268-13.169 2.016-19.953 1.04.57.854 1.09 1.573 1.543 2.336 1.557 2.609 1.411 5.46 1.216 8.336-.17 2.565-.306 5.134-.33 7.704-.035 3.575.038 7.155.082 10.735.049 3.93.131 7.855.16 11.785v9.152c0 5.026.02 10.055.06 15.088h-2.19c0-2.915.033-5.795 0-8.695-.045-3.624-.2-7.248-.205-10.872 0-3.332.19-6.665.19-9.997 0-3.808-.151-7.617-.195-11.425 0-2.565-.093-5.144.063-7.704.146-2.43.633-4.858.828-7.33.33-4.149-.765-7.666-4.711-9.803a16.391 16.391 0 0 1-1.592-1.161c-1.017-.729-1.947-1.652-3.09-2.128a7.578 7.578 0 0 1-3.183-2.633 7.077 7.077 0 0 0-.862-.845l-.326.165c.21 1.268.37 2.555.643 3.809.17.762 0 1.146-.77.874a4.655 4.655 0 0 1-1.946-1.156c-1.518-1.803-2.54-3.886-2.501-6.315.039-2.512-.312-4.858-1.86-6.971-.399-.534-.715-.66-1.05-.092-.367.661-.683 1.35-.945 2.06-.973 2.477-.876 5.114-.53 7.616.32 2.322 1.343 4.557 2.131 6.8 1.412 4.018 3.714 7.39 7.417 9.643a3.466 3.466 0 0 1 1.723 3.4c-.092 2.138-.258 4.275-.409 6.408-.175 2.38-.282 4.77-.579 7.136-.258 2.074-.788 4.12-1.105 6.193-.55 3.566-1.002 7.151-1.542 10.716-.424 2.789-.91 5.567-1.397 8.341-.18 1.035-.487 2.045-.643 3.08-.486 3.628-.88 7.262-1.314 10.895l-3.041-.053Z" fill="#125E5E"/></g></g><defs><clipPath id="a"><path fill="#fff" d="M0 0h65v129H0z"/></clipPath></defs></svg>