<svg width="116" height="114" viewBox="0 0 116 114" fill="none" xmlns="http://www.w3.org/2000/svg"><g clip-path="url(#a)"><mask id="b" style="mask-type:luminance" maskUnits="userSpaceOnUse" x="0" y="0" width="116" height="114"><path d="M116 0H0v114h116V0Z" fill="#fff"/></mask><g mask="url(#b)" fill="#125E5E"><path d="M17.644 105.022c.178 0 0 .306-.272.636a2.025 2.025 0 0 1-.544.318h-.405a3.035 3.035 0 0 0-.354-.152h-.197c.043-.061.081-.125.114-.191.076-.121.108-.146.146-.216l.057-.178v-.083a.644.644 0 0 0 .133.191c.094.119.205.224.329.311.074.07.157.13.247.178.082 0 .19.096.151.096a.362.362 0 0 1-.056.184c-.06.182-.103.369-.127.56a.49.49 0 0 1-.133.26 1.717 1.717 0 0 0-.285 1.037c0 .065.022.128.064.178.088.391.088.797 0 1.189-.172.309-.322.63-.45.96a.153.153 0 0 1-.095.14.501.501 0 0 0-.228.298 1.45 1.45 0 0 1-.164.439c0 .076-.177.134-.285.203a.807.807 0 0 1-.462 0c-.107-.069-.272 0-.399 0h-.152a3.688 3.688 0 0 1-.632-.928l-.07-.636a3.04 3.04 0 0 0-.095-.75.216.216 0 0 1 .082-.229 5.668 5.668 0 0 0-.095-1.093 1.046 1.046 0 0 1 .203-.636.12.12 0 0 0 0-.115c.027-.409.123-.811.285-1.189.07-.19.095-.406.164-.635 0 0 .057 0 .083-.096.025-.095.082-.095.095-.14a2.128 2.128 0 0 1 1.443-1.392 1.89 1.89 0 0 1 1.075.07c.102.047.198.107.285.178.089.095.177.197.26.299.076.152.163.298.26.438.05.083-.058.49 0 .503M37.757 24.504c.203.808.26 1.647.462 2.467.07.299.21.585.285.884.249 1.035.605 2.04 1.064 3 .215.402.5.762.841 1.063.437.362.848.52 1.177.82.12.102.108.547-.152.947a1.184 1.184 0 0 1-1.36.534 4.898 4.898 0 0 1-1.899-1.64 6.142 6.142 0 0 1-.936-2.01c-.222-.826-.633-1.589-.849-2.37a20.766 20.766 0 0 1-.556-2.71c0-.572-.083-1.188-.127-1.684v-2.543c-.05-.657-.05-1.316 0-1.971.007-.149.03-.296.07-.44.164-.546.341-.692.632-.705a.417.417 0 0 1 .178 0c.19 0 .246.273.272.636.084 1.068.234 2.13.45 3.179.138.833.297 1.66.493 2.48l-.045.063ZM10.822 9.988c.083-.298.462-.133.924.331.2.236.359.505.469.795.012.178.012.356 0 .534 0 0-.127.248-.222.477a1.45 1.45 0 0 0-.107.547c.011.216-.021.432-.095.635l-.247 1.113a4.498 4.498 0 0 1-.747 1.609 1.902 1.902 0 0 1-.57.521 8.082 8.082 0 0 0-1.594 1.189c-.07 0-.152.095-.165.235-.013.14-.272.369-.506.636a2.85 2.85 0 0 1-.526.509c-.369.18-.706.418-1 .705 0 0 0 .108-.177.096a.467.467 0 0 0-.392.248 3.32 3.32 0 0 1-.424.438 1.742 1.742 0 0 1-.43.191.808.808 0 0 1-.52-.152c-.082-.134-.29-.108-.449-.147H3.88a3.248 3.248 0 0 1-.235-.839c-.07-.314-.07-.64 0-.954.146-.366.315-.723.507-1.068.285-.521.633-1.023.721-1.189a.633.633 0 0 1 .342-.222s.31-.369.633-.693l.633-.636c.272-.178.436-.426.79-.394a.164.164 0 0 0 .14-.083c.323-.292.57-.439.696-.553.127-.115.095-.216.158-.382.064-.165 0 0 .07-.095a.286.286 0 0 0 .095-.133 11.57 11.57 0 0 1 .734-2.175 7.228 7.228 0 0 1 1.038-.935c.146-.146.633-.063.633-.165M35.922 80.474l.526.096h.164c.17.055.343.096.52.12h.056s-.082-.127 0-.12c.24.05.473.127.696.228.348.14.633.37.633.496 0 .127 0 .216-.165.356a1.306 1.306 0 0 1-.36.286.772.772 0 0 1-.589.108 3.601 3.601 0 0 0-.493.083 3.146 3.146 0 0 1-.488 0h-.272c-.133 0-.26 0-.316.064a.057.057 0 0 0-.019.075c.004.008.01.015.019.02l-.064-.044h-.506a.63.63 0 0 1-.633-.274.894.894 0 0 1 .165-.928c.077-.092.164-.175.26-.248l.246-.146c.199-.09.415-.134.633-.127l-.013-.045Z"/><path d="M23.613 80.442c1.284.246 2.585.384 3.892.414a9.753 9.753 0 0 1 1.43 0c1.7-.017 3.396-.196 5.063-.534.633-.166 1.582-.477 1.633-.738.164-.374.249-.78.247-1.189-.01-.246.014-.492.07-.731.03-.35.144-.688.328-.986.38-.337.583.127.773.465a1.492 1.492 0 0 1 .734 1.182 4.653 4.653 0 0 1-.405 1.94c-.08.183-.18.358-.298.52-.18.22-.393.409-.633.56-.287.168-.587.31-.898.426a12.15 12.15 0 0 1-3.165.7c-1.265.108-2.531.406-3.848.451a26.41 26.41 0 0 1-4.253-.14c-.873-.12-1.74-.229-2.588-.426-.652-.132-1.296-.3-1.93-.502a17.749 17.749 0 0 1-1.899-.636 27.287 27.287 0 0 1-2.886-1.183 4.624 4.624 0 0 1-.588-.35c-.69-.52-.804-.813-.595-1.353.063-.128.095-.248.158-.363a1.006 1.006 0 0 1 1.266-.267c.398.133.753.324 1.183.464.43.14.766.299 1.177.464.412.166.798.274 1.184.426.386.159.781.294 1.183.407.6.216 1.213.394 1.836.534a14.72 14.72 0 0 0 1.898.394l-.07.051ZM84.597 91.36a34.686 34.686 0 0 1-.475 3.42c-.095.4-.133.833-.228 1.189-.4 1.431-.949 2.817-1.639 4.132-.38.547-.633 1.189-1.032 1.673-.246.337-.462.705-.734 1.011-.282.31-.59.597-.917.858-.203.152-.361-.064-.405-.42a1.512 1.512 0 0 1 .259-1.182 26.59 26.59 0 0 0 2.221-4.031c.354-.905.59-1.852.703-2.817a24.73 24.73 0 0 0 .354-3.135v-2.015a27.577 27.577 0 0 0-.19-3.071c-.094-.782-.367-1.532-.518-2.302a4.18 4.18 0 0 0-.12-.508c-.096-.636 0-.871.461-1.068a1.89 1.89 0 0 1 .304-.147c.348-.108.69.108.886.56.59 1.388.923 2.872.981 4.38a27.46 27.46 0 0 1 .076 3.46l.013.012ZM110.253 97.889c0-.21.298-.248.633-.235.108 0 .367.152.38.228.012.077.069.293.095.426.025.134-.146 1.19-.121 1.66a2.62 2.62 0 0 1-.297 1.049l-.411.998-.203.496v.191c0 .063 0 0-.069.083a.25.25 0 0 0-.038.368.23.23 0 0 0 .12.083h.531c.126-.019.254-.019.38 0 .602.167 1.19.379 1.76.636a.209.209 0 0 1 .24.171c.101.306.291.318.443.439.216.156.404.347.557.566.067.142.108.295.12.451a.575.575 0 0 1-.272.356 1.73 1.73 0 0 0-.247.312l-.082.121a3.15 3.15 0 0 0-.677.082 2.5 2.5 0 0 0-.412.14.528.528 0 0 1-.202 0 3.522 3.522 0 0 0-.633 0 6.936 6.936 0 0 0-.886.096.14.14 0 0 1-.07.018.14.14 0 0 1-.069-.018l-.272-.07a3.87 3.87 0 0 1-1.266-.216 3.462 3.462 0 0 1-1.184-.674 2.011 2.011 0 0 1-.746-1.342.573.573 0 0 0-.095-.286 3.115 3.115 0 0 1 .177-2.543c.107-.229.164-.286.228-.42l.19-.343a.79.79 0 0 0 .221-.204c.298-.534.633-1.049.943-1.596.269-.219.527-.453.772-.699.07-.14.45-.19.45-.299M96.254 37.24a26.021 26.021 0 0 0-2.86-.776c-.355-.07-.722-.083-1.089-.153a32.646 32.646 0 0 0-3.848-.572 13.36 13.36 0 0 0-1.747 0 7.649 7.649 0 0 1-2.221 0c-.475-.108.07-1.876.93-1.908a18.184 18.184 0 0 1 4.734.318c.93.191 1.899.191 2.873.344 1.049.183 2.086.425 3.108.724.633.178 1.266.407 1.867.636.936.35 1.848.75 2.747 1.19.696.324 1.392.635 2.069.972.149.077.291.166.424.267.494.388.589.604.487.986l-.076.248c-.113.248-.455.305-.898.19a18.49 18.49 0 0 1-1.899-.636 15.396 15.396 0 0 1-1.772-.73 34.009 34.009 0 0 0-2.76-1.012l-.069-.089ZM98.912 10.802c-.247-.095-.297-.375-.285-.743 0-.134.165-.382.26-.382.18-.013.363-.013.544 0 .095 0 1.576.585 2.095.77.458.204.884.474 1.266.8a15.366 15.366 0 0 1 2.272 2.08c.154.174.284.368.386.578.354.776.854 1.354 1.348 2.308.046.15.131.284.247.388.235.347.414.729.531 1.132.097.205.177.418.241.636a4.97 4.97 0 0 0 .746 1.583c0 .095.165.152.127.318a.914.914 0 0 0 .228.738 2.8 2.8 0 0 1 .304.972 1.121 1.121 0 0 1-.285.598.447.447 0 0 1-.424.152c-.139-.082-.272.07-.367.108a.215.215 0 0 1-.127 0 1.107 1.107 0 0 1-.405-.095l-.449-.286c-.317-.178-.633-.286-.684-.33a13.614 13.614 0 0 1-2.082-2.144 1.207 1.207 0 0 1-.177-.553l-.475-1.036-.272-.534-.12-.216a1.832 1.832 0 0 0-.114-.305.699.699 0 0 1-.07-.465.312.312 0 0 0-.088-.19c-.329-.44-.633-.986-.969-1.495a8.479 8.479 0 0 0-.632-.724.713.713 0 0 1-.07-.16.743.743 0 0 0-.108-.196 13.742 13.742 0 0 0-1.487-1.666 8.976 8.976 0 0 0-.664-1.081c-.083-.108-.19-.56-.285-.585"/><path d="M43.27 53.3a30.961 30.961 0 0 1-3.209 2.766l-.19.152-.095.064c-.05.07-.104.135-.164.197-.14.18-.259.377-.355.585a7.479 7.479 0 0 0-.544 1.59c-.17.896-.303 1.792-.386 2.695a58.155 58.155 0 0 0-.202 10.122c.102 1.518.283 3.029.544 4.527.177.954.329 1.907.462 2.874.07.477.114.954.164 1.437v1.45c0 .241-.12.336-.367.476a.984.984 0 0 1-.708-.203 3.859 3.859 0 0 1-1.899-2.372 30.698 30.698 0 0 1-.962-6.014 50.983 50.983 0 0 1-.114-6.142c.114-2.46 0-5.01.304-7.63.18-1.49.607-2.939 1.266-4.285.208-.376.454-.73.734-1.056.155-.18.33-.345.519-.49l.405-.317c.519-.407 1.012-.808 1.512-1.19a24.569 24.569 0 0 0 3.272-3.566 19.969 19.969 0 0 0 3.399-6.403c.5-1.78.727-3.626.67-5.474v-1.189a3.384 3.384 0 0 1 .134-1.59c.203-.33.492-.597.835-.775.17-.083.31-.19.437-.248a.73.73 0 0 1 .709.299c.396.372.638.88.677 1.424A19.395 19.395 0 0 1 48.25 46.23a25.649 25.649 0 0 1-4.968 7.127l-.013-.057ZM3.019 37.951a70.325 70.325 0 0 0 2.196 9.29c.341 1.182.76 2.231 1.126 3.37 1.266 3.98 2.437 8.055 3.437 12.188.436 1.83.892 3.681 1.183 5.55.506 2.43.482 4.942-.07 7.363-.177.763-.632.521-1.05-.165a7.784 7.784 0 0 1-.911-3.065 44.462 44.462 0 0 0-1.127-6.803c-.48-2.302-1.177-4.61-1.715-6.956-.753-2.816-1.854-5.658-2.753-8.52a94.214 94.214 0 0 1-2.531-9.658l-.279-1.519-.228-1.545a30.13 30.13 0 0 1-.272-3.116 19.96 19.96 0 0 1 .38-4.749 33.25 33.25 0 0 1 1.183-4.559A18.535 18.535 0 0 1 4.911 18.4c.389-.441.824-.84 1.297-1.188a6.31 6.31 0 0 1 1.317-.636 3.879 3.879 0 0 1 1.012-.096 1.462 1.462 0 0 1 1.076.592c.101.113.19.236.266.368.07.204-.108.382-.392.636-.166.112-.34.212-.52.299a5.744 5.744 0 0 1-.632.426 9.054 9.054 0 0 0-3.24 4.184 28.298 28.298 0 0 0-1.9 5.843 22.6 22.6 0 0 0-.569 4.514c0 .737.083 1.532.114 2.308.032.776.215 1.551.31 2.371l-.031-.07Z"/><path d="M12.38 15.45a26.497 26.497 0 0 0-1.665 4.158c-.152.534-.228 1.081-.367 1.615a42.213 42.213 0 0 0-1.184 5.812 21.98 21.98 0 0 0-.126 2.657 11.707 11.707 0 0 1-.216 3.421c-.095.356-.588.312-1.113 0a2.358 2.358 0 0 1-1.178-1.532 23.49 23.49 0 0 1 .589-7.128c.342-1.411.424-2.93.791-4.38a31.623 31.623 0 0 1 1.582-4.667c.411-.96.887-1.89 1.424-2.785a10.585 10.585 0 0 1 3.31-3.478 8.556 8.556 0 0 1 3.62-1.272c.26-.019.52-.019.779 0 .93 0 1.05.191 1.348.808.057.146.139.273.202.407a.639.639 0 0 1-.12.636c-.22.264-.524.446-.86.515-.539.14-1.045.26-1.456.4-.401.082-.797.19-1.184.324a4.914 4.914 0 0 0-1.899 1.19 10.96 10.96 0 0 0-2.24 3.337l-.038-.038Z"/><path d="m21.569 10.485-.33.514-.297.554c-.19.368-.411.724-.576 1.119-.323.794-.69 1.57-.968 2.377a18.681 18.681 0 0 0-.526 1.85 48.323 48.323 0 0 0-1.55 6.817 30.284 30.284 0 0 0-.221 3.121 15.924 15.924 0 0 1-.26 4.101c-.108.439-.506.33-.95 0a3.181 3.181 0 0 1-1.094-1.786 24.54 24.54 0 0 1-.146-4.203c.042-1.428.224-2.849.544-4.24.38-1.667.532-3.447.956-5.183a21.87 21.87 0 0 1 2.177-5.474 13.8 13.8 0 0 1 .994-1.558c.352-.516.748-1.001 1.183-1.45a5.426 5.426 0 0 1 1.02-.997c.378-.318.773-.615 1.183-.89a7.756 7.756 0 0 1 2.727-.999 8.513 8.513 0 0 1 4.532.248c.347.113.67.287.956.515.402.297.703.713.86 1.19.043.307-.02.621-.177.89a1.827 1.827 0 0 1-.19.317c-.114.153-.304.178-.576.153a3.359 3.359 0 0 1-.936-.153 9.889 9.889 0 0 0-2.62-.413 7.047 7.047 0 0 0-2.678.547c-.253.115-.48.279-.67.483-.273.254-.57.464-.842.737l-.747.89c-.234.325-.456.636-.633.999l-.145-.076Z"/><path d="M36.562 12.138c.47-.864.992-1.699 1.563-2.5.282-.413.591-.808.924-1.182l.48-.547.247-.19a.114.114 0 0 0 .095-.166.382.382 0 0 0 0-.12.696.696 0 0 0-.082-.217 3.724 3.724 0 0 0-1.013-1.367 4.643 4.643 0 0 0-2.6-.794 3.31 3.31 0 0 0-1.975.96 14.03 14.03 0 0 0-1.987 2.13 27.545 27.545 0 0 0-4.93 10.808c-.538 2.372-.71 4.75-1.007 7.121-.095.738-.677.668-1.183 0a4.778 4.778 0 0 1-.924-3.44 32.703 32.703 0 0 1 1.727-7.629 29.604 29.604 0 0 1 3.545-7.057 24.887 24.887 0 0 1 3.164-3.815 7.11 7.11 0 0 1 2.36-1.545 3.69 3.69 0 0 1 .817-.216h1.468l.684.12a6.362 6.362 0 0 1 3.727 2.245c.233.294.444.604.633.928l.234.49.26.635c.126.44.158.902.095 1.355a1.106 1.106 0 0 1-.095.311v.083h.076l-.095.127-.418.528c-.221.21-.493.458-.67.636l-.437.534a6.6 6.6 0 0 0-.817 1.189 20.394 20.394 0 0 0-2.367 5.442 25.95 25.95 0 0 0-.816 9.098 24.027 24.027 0 0 0 1.899 6.677c.202.476.462.902.633 1.366.79 1.698.86 2.378.531 3.078-.07.159-.14.318-.228.477-.272.413-1.063 0-2.139-1.19a21.752 21.752 0 0 1-4.044-13.695c.025-.918.096-1.835.215-2.746.1-.918.282-1.824.544-2.709a26.04 26.04 0 0 1 1.855-5.239l.05.026Z"/><path d="M64.028 38.689a13.239 13.239 0 0 1-2.253-3.65.366.366 0 0 1 0-.165c0-.095-.076 0-.108-.095h-.329l-.95-.064h-2.682c-3.165-.114-6.33-.172-9.544 0-1.402.062-2.8.211-4.184.445-.886.153-1.765.343-2.626.509-.86.165-1.728.273-2.576.394-.531.07-.69-.464-.405-1.189a3.416 3.416 0 0 1 2.12-1.971 31.107 31.107 0 0 1 5.696-.858 51.036 51.036 0 0 1 5.696-.108c2.26.095 4.601-.115 6.917-.07.633 0 1.184 0 1.848.057h.93a6.58 6.58 0 0 1 1.412.108l.462.394.222.19.107.223c.17.341.363.67.576.986.203.35.272.56.43.845.154.286.327.56.52.82.851 1.2 1.848 2.29 2.968 3.243a22.596 22.596 0 0 0 5.695 3.669c.79.35 1.607.633 2.443.846.855.165 1.684.394 2.532.476.375.013.747.06 1.114.14 1.367.166 1.785.382 2.019 1.19.068.186.123.377.164.572.095.635-.55 1.042-1.709 1.08a20.063 20.063 0 0 1-10.126-2.924 25.436 25.436 0 0 1-6.328-5.131l-.051.038ZM64.42 2.632l4.728-1.042 2.367-.547c.829-.166 1.67-.382 2.493-.503a36.145 36.145 0 0 1 3.678-.483 32.993 32.993 0 0 1 6.53.274c2.177.28 4.306.856 6.33 1.71.91.373 1.8.798 2.664 1.272a21.02 21.02 0 0 1 2.437 1.646 16.978 16.978 0 0 1 2.79 2.652c.368.521.684 1.08 1 1.627.277.577.49 1.182.633 1.806.184.77-.246.807-1.038.496a7.387 7.387 0 0 1-2.74-1.78 18.73 18.73 0 0 0-11.069-6.638 25.333 25.333 0 0 0-8.537-.229 35.996 35.996 0 0 0-4.728.807l-4.816 1.107-5.911 1.271c-3.013.636-6.057 1.19-9.057 1.736-2.367.4-4.614.903-6.961 1.183-.507.089-1.02.184-1.538.241a6.565 6.565 0 0 1-2.057 0 1.479 1.479 0 0 1-.956-.515 4.046 4.046 0 0 1-.31-.267c-.202-.241.532-.845 1.899-1.189l6.22-1.405c2.102-.477 4.235-.947 6.387-1.341 3.164-.636 6.385-1.272 9.562-2.029v.14Z"/><path d="M98.513 13.492a21.674 21.674 0 0 0-3.55-1.698c-.475-.19-.924-.273-1.386-.42a34.734 34.734 0 0 0-5.152-1.042 21.092 21.092 0 0 0-2.367-.19 10.39 10.39 0 0 1-3-.382c-.322-.083-.284-.286 0-.572.38-.384.85-.664 1.368-.814a4.971 4.971 0 0 1 1.588-.16h1.582c1.069.068 2.128.236 3.165.503 1.266.318 2.576.413 3.892.807 1.397.427 2.755.976 4.057 1.64.82.408 1.609.875 2.36 1.4a14.682 14.682 0 0 1 3.025 2.86c.728.858 1.323 1.82 1.766 2.856.11.232.197.475.26.724.221.922 0 1.272-.696 1.45-.164.05-.331.09-.5.114a1.106 1.106 0 0 1-1.178-.738 12.726 12.726 0 0 0-2.145-4.011 11.449 11.449 0 0 0-2.968-2.378l-.12.05Z"/><path d="M106.678 23.163a13.998 13.998 0 0 0-3.545-2.226c-.474-.222-.968-.388-1.455-.591a49.976 49.976 0 0 0-5.367-1.844 24.128 24.128 0 0 0-2.48-.496 21.4 21.4 0 0 1-3.165-.636c-.336-.108-.247-.438.082-.775a2.144 2.144 0 0 1 1.557-.636c1.133.045 2.258.203 3.36.47 1.113.24 2.208.555 3.279.941 1.266.477 2.671.77 3.993 1.272a21.53 21.53 0 0 1 4.234 2.136c.405.274.779.636 1.184.903.373.337.728.693 1.063 1.068a8.601 8.601 0 0 1 2 4.108c.214 1.175.284 2.373.209 3.566a3.325 3.325 0 0 1-.089.75c-.215.916-.57 1.107-1.183 1.19h-.368a.634.634 0 0 1-.474-.337 1.478 1.478 0 0 1-.247-.808 22.24 22.24 0 0 1 0-2.683 8.206 8.206 0 0 0-.392-2.378 7.063 7.063 0 0 0-2.19-3"/><path d="M104.424 37.417c1.57.744 3.133 1.507 4.728 2.175a19.74 19.74 0 0 0 2.31.852 3.99 3.99 0 0 0 1.899.235.32.32 0 0 0 .221-.127c.07 0 .07-.108.108-.324a3.75 3.75 0 0 0 0-.636 3.186 3.186 0 0 0-.133-.75 10.957 10.957 0 0 0-3.297-5.087 27.866 27.866 0 0 0-5.285-3.764c-.867-.451-1.766-.858-2.652-1.271-.886-.414-1.816-.687-2.727-1.037-1.184-.413-2.367-.7-3.55-1.1a33.145 33.145 0 0 1-3.545-1.189c-.734-.324-.557-.636.19-.87a7.05 7.05 0 0 1 3.544-.166c1.266.299 2.531.737 3.797 1.119 1.272.4 2.512.894 3.709 1.481a29.093 29.093 0 0 1 6.898 4.254l.931.82c.31.286.595.598.886.89a18.27 18.27 0 0 1 1.67 1.965 8.551 8.551 0 0 1 1.899 5.086 3.275 3.275 0 0 1-.532 1.844c-.43.556-1.05.932-1.74 1.056a6.89 6.89 0 0 1-3.05-.293 42.719 42.719 0 0 1-5.152-1.907c-2-.84-3.962-1.73-5.917-2.544a53.234 53.234 0 0 0-9.221-2.969 28.107 28.107 0 0 0-7.26-.502c-.525 0-1.031.108-1.563.133-1.949.178-2.563.166-3.164-.502a4.945 4.945 0 0 1-.38-.451c-.297-.483.45-1.183 2.013-1.507a29.395 29.395 0 0 1 14.366 1.132 84.503 84.503 0 0 1 10.025 3.884l-.026.07ZM111.627 83.742a56.45 56.45 0 0 0-.709-9.906c-.177-1.189-.462-2.378-.677-3.567-.393-2.123-.848-4.228-1.266-6.39a78.879 78.879 0 0 1-.981-6.555c-.202-1.945-.392-3.922-.462-5.938-.05-1.274.001-2.55.152-3.815a7.727 7.727 0 0 1 1.418-3.656c.531-.68.683-.343.734.4 0 .344.082.86.139 1.393 0 .26.095.572.095.865.008.31-.011.621-.057.928a69.835 69.835 0 0 0 .848 14.58c.462 2.93 1.424 6.02 1.975 9.098a68.142 68.142 0 0 1 1.183 10.319 48.411 48.411 0 0 1-.234 6.428 31.01 31.01 0 0 1-2.437 9.435c-.259.579-.487 1.183-.759 1.73l-.93 1.653a21.48 21.48 0 0 1-2.165 3.102 6.799 6.799 0 0 1-1.183 1.272 3.74 3.74 0 0 1-2.45 1.011 1.17 1.17 0 0 1-1.177-.846 1.146 1.146 0 0 1 0-.508c0-.236.329-.287.564-.407.234-.121.417-.318.867-.566a7.11 7.11 0 0 0 1.898-1.997 18.637 18.637 0 0 0 1.76-2.575l.803-1.354.633-1.462c.236-.48.447-.973.633-1.475l.481-1.533a35.74 35.74 0 0 0 1.266-9.683l.038.02Z"/><path d="M101.976 101.729a17.746 17.746 0 0 0 2.107-3.732c.177-.496.304-.998.449-1.507.527-1.833.86-3.717.994-5.62.07-.846.093-1.695.07-2.544-.04-1.113.052-2.227.272-3.319.069-.343.316-.292.633 0 .412.392.693.903.803 1.463.07.572.152 1.189.178 1.697.025.509 0 1.19 0 1.71a27.566 27.566 0 0 1-.45 3.46c-.285 1.366-.436 2.829-.867 4.215a18.887 18.887 0 0 1-3.614 6.758 11.38 11.38 0 0 1-3.55 2.785 15.528 15.528 0 0 1-3.247 1.189c-.253.057-.5.127-.747.166-.949.152-1.265-.121-1.455-.636a1.368 1.368 0 0 0-.133-.382c-.082-.426.272-.82.88-1.011a15.588 15.588 0 0 0 4.892-1.907 10.389 10.389 0 0 0 2.791-2.874l-.006.089Z"/><path d="M94.02 105.099c.488-.575.926-1.189 1.31-1.838.402-.627.747-1.288 1.032-1.977.177-.528.291-1.094.456-1.653a82.685 82.685 0 0 0 1.48-6.021c.171-.903.298-1.812.38-2.721.056-1.176.23-2.344.52-3.485.107-.356.341-.305.632 0 .423.454.699 1.026.791 1.64a25.073 25.073 0 0 1-1.019 7.344c-.424 1.424-.633 2.931-1.063 4.406-.108.403-.237.8-.386 1.189-.078.23-.168.455-.272.674l-.298.547c-.392.738-.829 1.462-1.303 2.175a11.494 11.494 0 0 1-2.057 2.447 9.363 9.363 0 0 1-4.335 2.175 16.301 16.301 0 0 1-3.677.502h-.798a1.979 1.979 0 0 1-1.031-.311 1.2 1.2 0 0 1-.33-.751 1.57 1.57 0 0 0-.075-.318.923.923 0 0 1 .31-.502 1.095 1.095 0 0 1 .873-.343l2.918-.159a11.93 11.93 0 0 0 2.708-.553 7.658 7.658 0 0 0 3.279-2.378l-.045-.089Z"/><path d="M83.957 110.897a7.044 7.044 0 0 1-4.506.445c-.621-.17-1.2-.47-1.7-.88-.5-.41-.907-.92-1.198-1.497a8.359 8.359 0 0 1-.545-1.38 2.006 2.006 0 0 1 .152-1.272 3.47 3.47 0 0 1 .38-.572c.133-.153.323-.388.392-.458.753-.82 1.361-1.596 2.013-2.378a21.22 21.22 0 0 0 4.316-9.836c.26-1.622.36-3.266.297-4.908 0-1.043-.107-2.098-.19-3.179-.082-1.08-.082-2.124-.12-3.18 0-.68.273-.635.703-.145a7.062 7.062 0 0 1 1.462 2.734 24.905 24.905 0 0 1-1.184 13.587 26.18 26.18 0 0 1-4.132 7.407l-1.184 1.354-.354.382a.267.267 0 0 0-.063.299c.024.09.058.177.1.26l.235.439.297.369.355.286a2.945 2.945 0 0 0 1.936.369 6.745 6.745 0 0 0 4.165-2.258 20.704 20.704 0 0 0 3.721-7.044 36.445 36.445 0 0 0 1.304-6.098c.07-.457.107-.902.202-1.354.272-1.697.766-2.168 1.266-2.467.107-.076.219-.144.335-.203.165-.07.292.082.424.426a4.72 4.72 0 0 1 .31 1.532 26.397 26.397 0 0 1-.746 5.938 33.732 33.732 0 0 1-1.899 5.945 21.207 21.207 0 0 1-2.367 4.177l-.778.98a9.626 9.626 0 0 1-1.006.947 10.449 10.449 0 0 1-2.266 1.38l-.127-.147ZM78.831 63.167c.854-.839 1.766-1.627 2.614-2.371.424-.356.842-.706 1.183-1.024.191-.182.348-.397.462-.636 0-.381.095-.845.127-1.271.082-.973 0-1.958.133-2.944.221-3.471.386-6.994.38-10.446 0-1.545-.12-3.096-.228-4.616-.14-1.965-.462-3.885-.576-5.811 0-.636.303-.636.81-.217a4.27 4.27 0 0 1 1.443 2.474c.755 4.052.998 8.183.721 12.296-.126 2.442 0 4.998-.082 7.516 0 1.093-.108 2.142-.209 3.318a3.325 3.325 0 0 1-.76 1.66c-.296.365-.62.708-.968 1.023l-1.886 1.654a21.025 21.025 0 0 0-3.227 3.566 20.27 20.27 0 0 0-3.044 6.676 25.972 25.972 0 0 0-.576 5.64v1.189c0 1.558-.203 2.047-1.007 2.378-.174.09-.356.165-.544.222-.633.166-1.101-.496-1.266-1.723a24.326 24.326 0 0 1 0-5.595c.272-1.96.775-3.881 1.5-5.722a22.847 22.847 0 0 1 4.86-7.433l.14.197Z"/><path d="M55.649 78.395c.437.534.848 1.068 1.266 1.615l.57.82c.113.165.088.127.1.165h.083l.367.07.911.14c.633.096 1.266.16 1.899.23.924.094 1.848.107 2.778.19 3.279.286 6.563.521 9.867.636 1.45 0 2.917 0 4.36-.07a27.035 27.035 0 0 0 2.766-.23l1.36-.082c.451-.002.901-.03 1.349-.083.544 0 .633.331.228.859a4.288 4.288 0 0 1-2.367 1.45 47.104 47.104 0 0 1-5.83.483 55.417 55.417 0 0 1-5.815-.248c-2.367-.216-4.734-.166-7.095-.325-1.316-.088-2.607-.184-3.93-.35a5.385 5.385 0 0 1-1.013-.158 5.613 5.613 0 0 1-.633-.127 4.8 4.8 0 0 1-.702-.286 5.3 5.3 0 0 1-.519-.547l-.316-.439-.583-.75a24.92 24.92 0 0 0-3.164-3.395 18.854 18.854 0 0 0-5.778-3.694c-.82-.32-1.667-.56-2.532-.719a19.756 19.756 0 0 0-2.6-.222h-1.184c-1.418 0-1.899-.178-2.247-.865a6.482 6.482 0 0 1-.247-.464c-.19-.522.405-1.011 1.595-1.272a16.053 16.053 0 0 1 5.455.19c1.85.42 3.63 1.108 5.285 2.042a23.373 23.373 0 0 1 6.386 5.366l-.07.07ZM2.164 78.312a9.369 9.369 0 0 1 .298-3.134 5.489 5.489 0 0 1 1.987-3.014 4.418 4.418 0 0 1 2.089-.846 2.805 2.805 0 0 1 1.942.986c.13.12.252.248.368.381l.234.261.424.49c.272.317.544.635.829.921.823.832 1.719 1.588 2.677 2.258A27.196 27.196 0 0 0 24.84 81.25c1.915.315 3.851.48 5.791.49h7.474c.779 0 .722.444.095.934a6.633 6.633 0 0 1-3.297 1.271 39.444 39.444 0 0 1-7.892.083 30.585 30.585 0 0 1-7.829-1.615 28.226 28.226 0 0 1-8.86-4.597 20.174 20.174 0 0 1-2.006-1.907l-1.538-1.672c-.12-.121-.285-.261-.45-.172a1.384 1.384 0 0 0-.5.299c-.479.456-.798 1.056-.91 1.71a8.048 8.048 0 0 0 0 2.861c.136.938.48 1.833 1.006 2.62a13.632 13.632 0 0 0 3.202 3.242 24.949 24.949 0 0 0 4.031 2.372 37.222 37.222 0 0 0 6.886 2.378c.52.14 1.038.235 1.55.369 1.9.464 2.444.725 2.766 1.468l.26.503a.35.35 0 0 1 0 .381.985.985 0 0 1-.488.305 4.308 4.308 0 0 1-1.898.121A33.77 33.77 0 0 1 8.79 87.85a18.416 18.416 0 0 1-4.386-3.815 11.385 11.385 0 0 1-1.633-2.695 8.858 8.858 0 0 1-.475-1.609 14.868 14.868 0 0 1-.202-1.507l.07.09Z"/><path d="M8.48 92.116a13.601 13.601 0 0 0 3.633 2.225c.507.235 1.038.394 1.52.579a53.702 53.702 0 0 0 5.657 1.805c.86.215 1.73.382 2.608.503 1.143.06 2.273.275 3.36.635.33.147.228.598-.14 1.05a2.3 2.3 0 0 1-1.67.89 27.733 27.733 0 0 1-6.962-1.393c-1.36-.496-2.841-.731-4.284-1.272a21.66 21.66 0 0 1-4.43-2.257 9.563 9.563 0 0 1-2.367-2.238 9.736 9.736 0 0 1-1.652-4.533 25.002 25.002 0 0 1-.336-3.567v-.782c.108-.973.355-1.189 1.064-1.316.162-.02.325-.02.487 0 .544 0 .924.451 1.006 1.113.062 1.864.274 3.72.633 5.55a5.997 5.997 0 0 0 1.95 2.944l-.077.064Z"/><path d="M13.373 100.686a23.744 23.744 0 0 0 3.715 1.615c.474.153 1.031.248 1.455.369a32.11 32.11 0 0 0 5.33.839c.828.07 1.657.07 2.486.07a8.198 8.198 0 0 1 3.215.35c.33.114.235.483-.082.89a2.107 2.107 0 0 1-1.418.916 31.854 31.854 0 0 1-6.468-.128c-1.316-.241-2.746-.19-4.177-.534a24.247 24.247 0 0 1-4.316-1.5 16.81 16.81 0 0 1-2.531-1.412 9.293 9.293 0 0 1-2.994-3.376 7.937 7.937 0 0 1-1.012-3.44v-.8c.139-.96.411-1.19 1.183-1.19.16-.012.321-.012.481 0a1.182 1.182 0 0 1 .968 1.081 7.888 7.888 0 0 0 1.437 4.044 8.868 8.868 0 0 0 2.797 2.162l-.07.044Z"/><path d="M38.276 108.869c1.494-.286 2.968-.68 4.494-1.068 1.525-.388 3.1-.75 4.645-1.068 1.183-.242 2.26-.515 3.398-.719a116.283 116.283 0 0 1 12.145-1.411c1.804-.083 3.614-.204 5.424-.204h1.753l1.76.178c1.189.141 2.345.488 3.417 1.024.684.324.412.636-.285.865-.43.141-.873.241-1.322.299a4.287 4.287 0 0 1-1.703.095 65.317 65.317 0 0 0-6.696-.127c-2.265.07-4.563.235-6.879.4-2.82.312-5.62.788-8.386 1.425-1.525.324-3.05.635-4.575 1.023-1.526.388-2.988.808-4.563 1.189a50.32 50.32 0 0 1-5.804 1.189 27.44 27.44 0 0 1-9.063-.229 17.66 17.66 0 0 1-6.55-2.734 8.35 8.35 0 0 1-1.266-.96 4.13 4.13 0 0 1-1.265-1.659 1.278 1.278 0 0 1 0-1.157c.031-.146.076-.289.132-.426.127-.312 1.178-.166 2.076.674a21.032 21.032 0 0 0 4.734 2.892 16.958 16.958 0 0 0 5.519 1.272c2.978.13 5.96-.155 8.86-.846v.083ZM110.253 23.92c.165.19 0 .425-.234.711a.72.72 0 0 1-.475.146 2.13 2.13 0 0 1-.379-.286 11.69 11.69 0 0 1-.899-1.665 6.074 6.074 0 0 1-.487-1.19 21.672 21.672 0 0 1-.671-2.543 2.203 2.203 0 0 1 0-.584 7.552 7.552 0 0 0-.215-1.959.645.645 0 0 0-.127-.311 9.774 9.774 0 0 1-.449-2.092v-1.958a1.23 1.23 0 0 0 0-.547 2.846 2.846 0 0 1 0-.738.9.9 0 0 1 .177-.426.2.2 0 0 1 .272-.082c.095.082.165 0 .234-.058h.083c.189 0 1.075 1.19 1.113 1.355.038.165.684 2.053.735 2.282a.947.947 0 0 1 0 .375c0 .083.424 1.692.449 1.749.07.34.07.69 0 1.03a.275.275 0 0 0 0 .203c.097.57.162 1.146.196 1.723l.12.865a.704.704 0 0 1 0 .172 1.081 1.081 0 0 0 0 .197c.076.686.203 1.367.38 2.034-.019.373.022.747.12 1.107a.806.806 0 0 1 .057.495M96.868 107.642c-.228.216-.532.159-.899 0-.12-.07-.272-.362-.215-.451.12-.162.252-.314.392-.458a13.05 13.05 0 0 1 2.367-1.189 8.59 8.59 0 0 1 1.734-.502 31.911 31.911 0 0 1 3.551-.452c.263-.019.528-.019.791 0a22.47 22.47 0 0 0 2.709.07c.148.032.301.032.449 0a16.53 16.53 0 0 1 2.968 0c.766.172 1.538.286 2.291.42.117.002.232.03.336.082.209.129.451.191.696.178.329.022.656.062.981.121.17.039.332.106.481.197.145.077 0 .312 0 .337v.375c-.705.214-1.427.365-2.158.452h-3.165a2.232 2.232 0 0 1-.5-.07h-2.367a5.052 5.052 0 0 1-1.348-.127.624.624 0 0 0-.272 0h-2.367a4.943 4.943 0 0 0-1.183.095h-.177a.96.96 0 0 0-.273 0 14.36 14.36 0 0 0-2.696.496c-.107 0-.398.07-.708.121-.243.045-.48.113-.71.203-.132.045-.632-.051-.72.089M12.025 101.284c-.178-.134-.083-.356.145-.636.07-.108.367-.273.437-.235.136.068.268.147.392.235.363.492.67 1.023.918 1.583.178.378.305.778.38 1.189.19.814.31 1.634.417 2.442.013.182.013.364 0 .546a8.977 8.977 0 0 0 0 1.844.459.459 0 0 0 .07.299c.1.665.123 1.339.07 2.009-.108.522-.14 1.03-.234 1.526v.229a.536.536 0 0 0-.12.464v.687a2.897 2.897 0 0 1-.058.324.229.229 0 0 1-.1.102.229.229 0 0 1-.14.025.185.185 0 0 0-.203.108h-.07a2.166 2.166 0 0 1-.493-.635 5.312 5.312 0 0 1-.392-.808 21.484 21.484 0 0 1-.38-2.193 1.003 1.003 0 0 1 0-.337s-.196-1.564-.196-1.615a2.038 2.038 0 0 1 .082-.935.898.898 0 0 0 0-.184v-1.577a5.542 5.542 0 0 0-.076-.795v-.146a.84.84 0 0 0 0-.178 8.359 8.359 0 0 0-.316-1.812 5.983 5.983 0 0 0-.152-.954c0-.108.1-.477 0-.521M15.955 9.474c.152-.121.316 0 .493.394.051.165.051.343 0 .508-.07.11-.152.21-.246.3 0 0-.969.368-1.266.476-.3.111-.613.182-.93.21-.633.082-1.266.165-1.9.229-.14.019-.282.019-.423 0a4.651 4.651 0 0 0-1.456 0 .378.378 0 0 0-.247.07 5.043 5.043 0 0 1-1.607.12c-.418-.133-.842-.216-1.266-.311a.183.183 0 0 1-.177-.07.4.4 0 0 0-.392-.165 2.292 2.292 0 0 1-.545-.108.778.778 0 0 1-.26-.217c-.081-.082 0-.356 0-.387v-.337a.345.345 0 0 1 0-.115c.367-.242.765-.43 1.184-.56l.791-.082a3.78 3.78 0 0 0 .9-.12.63.63 0 0 1 .271.056s1.184-.127 1.266-.127c.25-.017.5.02.734.108.05.013.102.013.152 0a8.412 8.412 0 0 1 1.266 0h.911c.51-.005 1.02-.045 1.525-.12.272.019.545.019.817 0 .139.095.373.298.436.248"/></g></g><defs><clipPath id="a"><path fill="#fff" d="M0 0h116v114H0z"/></clipPath></defs></svg>